<?xml version="1.0" standalone="no"?><!DOCTYPE svg PUBLIC "-//W3C//DTD SVG 1.1//EN" "http://www.w3.org/Graphics/SVG/1.1/DTD/svg11.dtd"><svg t="1712297252757" class="icon" viewBox="0 0 1024 1024" version="1.1" xmlns="http://www.w3.org/2000/svg" p-id="13544" xmlns:xlink="http://www.w3.org/1999/xlink" width="200" height="200"><path d="M512 832c-19.2 0-38.4-10.667-57.6-29.867-8.533-8.533-8.533-21.333 0-27.733 8.533-8.533 21.333-8.533 27.733 0 12.8 12.8 21.334 19.2 29.867 19.2 8.533 0 17.067-6.4 29.867-19.2 8.533-8.533 21.333-8.533 27.733 0 8.533 8.533 8.533 21.333 0 27.733C550.4 821.333 531.2 832 512 832zM0 524.8c0 51.2 4.267 96 12.8 136.533 8.533 40.534 21.333 76.8 36.267 104.534 14.933 29.866 34.133 57.6 57.6 78.933 23.466 23.467 49.066 40.533 76.8 55.467 27.733 14.933 59.733 25.6 96 36.266 36.266 8.534 72.533 14.934 108.8 19.2C426.667 957.867 467.2 960 512 960s85.333-2.133 121.6-6.4c36.267-4.267 72.533-10.667 108.8-19.2 36.267-8.533 68.267-21.333 96-36.267 27.733-14.933 53.333-32 76.8-55.466s42.667-49.067 59.733-78.934c14.934-29.866 27.734-64 36.267-104.533 8.533-40.533 12.8-85.333 12.8-136.533 0-89.6-27.733-166.4-83.2-230.4 2.133-8.534 6.4-19.2 8.533-29.867s4.267-27.733 6.4-46.933c2.134-21.334 2.134-42.667-2.133-70.4-4.267-25.6-10.667-53.334-21.333-81.067h-8.534c-4.266-2.133-14.933 0-25.6 2.133-12.8 2.134-25.6 4.267-42.666 10.667C838.4 81.067 819.2 91.733 793.6 104.533c-25.6 12.8-53.333 32-81.067 53.334-49.066-17.067-115.2-32-200.533-32S360.533 140.8 311.467 155.733c-27.734-21.333-55.467-38.4-81.067-51.2-25.6-14.933-46.933-23.466-61.867-29.866C153.6 70.4 138.667 66.133 125.867 64h-25.6c-4.267 0-6.4 2.133-8.534 2.133C81.067 93.867 74.667 121.6 70.4 147.2c-4.267 25.6-4.267 49.067-2.133 70.4 2.133 19.2 4.266 36.267 6.4 46.933 2.133 10.667 6.4 21.334 8.533 29.867C27.733 358.4 0 435.2 0 524.8zM136.533 640c0-57.6 21.334-110.933 64-157.867 12.8-14.933 27.734-25.6 44.8-32 17.067-6.4 36.267-10.666 57.6-12.8H364.8c19.2 2.134 44.8 4.267 72.533 6.4C465.067 445.867 490.667 448 512 448s46.933-2.133 74.667-4.267c29.866-2.133 53.333-4.266 72.533-6.4 19.2-2.133 40.533-2.133 61.867 0 21.333 0 40.533 4.267 57.6 12.8 17.066 6.4 32 19.2 44.8 32 42.666 46.934 64 100.267 64 157.867 0 34.133-4.267 64-10.667 91.733-6.4 25.6-17.067 49.067-27.733 66.134-10.667 17.066-25.6 34.133-44.8 44.8-19.2 12.8-38.4 21.333-57.6 27.733-19.2 6.4-42.667 12.8-70.4 14.933-29.867 4.267-55.467 6.4-76.8 6.4C576 896 546.133 896 512 896c-34.133 0-64 0-87.467-2.133-23.466 0-49.066-2.134-76.8-6.4-29.866-4.267-53.333-8.534-70.4-14.934-19.2-6.4-36.266-17.066-57.6-27.733-19.2-12.8-34.133-27.733-44.8-44.8s-19.2-40.533-27.733-66.133C140.8 704 136.533 674.133 136.533 640zM256 608c0 53.333 27.733 96 64 96s64-42.667 64-96-27.733-96-64-96-64 42.667-64 96z m384 0c0 53.333 27.733 96 64 96s64-42.667 64-96-27.733-96-64-96-64 42.667-64 96z m0 0" fill="#2c2c2c" p-id="13545"></path></svg>