<?xml version="1.0" standalone="no"?><!DOCTYPE svg PUBLIC "-//W3C//DTD SVG 1.1//EN" "http://www.w3.org/Graphics/SVG/1.1/DTD/svg11.dtd"><svg t="1712297520169" class="icon" viewBox="0 0 1092 1024" version="1.1" xmlns="http://www.w3.org/2000/svg" p-id="25742" xmlns:xlink="http://www.w3.org/1999/xlink" width="213.28125" height="200"><path d="M293.090217 403.718709c1.240031-123.78168 74.003287-203.719401 186.934694-204.826572 94.552374-0.885737 189.104749-1.727186 283.435689 0.620016 33.835135 0.84145 40.389586-12.97604 36.093764-45.393997A170.149987 170.149987 0 0 0 633.12447 0.930023q-230.291497-1.81576-460.582994 0C71.700372 1.638613 3.852954 74.091861 1.372892 183.391748q-2.612923 113.108555 0 226.34997a170.94715 170.94715 0 0 0 131.930455 177.147305c25.81922 6.288729 29.937895 13.286048 19.796212 38.839547-18.511893 46.456881-34.499438 94.109506-51.505579 141.274976l10.31883 8.857366c48.405501-32.772252 95.925266-67.138829 145.482225-97.741026a69.131736 69.131736 0 0 0 36.403771-69.928899c-2.435775-67.980279-1.240031-136.137704-0.575728-204.250843z m652.034945-166.739901q-235.428769-5.44728-470.990399 0a148.449442 148.449442 0 0 0-145.703658 157.882536 3702.600121 3702.600121 0 0 0 0 276.084076 150.840931 150.840931 0 0 0 155.933915 158.10397c50.664129 0.84145 101.372546 2.214341 151.903815-0.531442a156.022489 156.022489 0 0 1 103.985468 32.506531c74.80045 53.498486 151.815241 103.40974 240.034599 162.931234-15.987544-44.286826-26.572096-72.851829-36.669492-101.549693s-20.460514-57.572874-31.53222-88.972234c9.521668-1.727186 15.854684-3.498659 22.143413-4.030101 105.004065-8.281637 155.712482-66.031658 156.775365-180.380244 0.708589-81.000605 1.372892-162.045498 0-243.001817-1.992907-100.663956-56.022835-166.872762-146.146527-168.954242z m0 0" fill="#1296db" p-id="25743"></path></svg>