<?xml version="1.0" standalone="no"?><!DOCTYPE svg PUBLIC "-//W3C//DTD SVG 1.1//EN" "http://www.w3.org/Graphics/SVG/1.1/DTD/svg11.dtd"><svg height="1024" node-id="1" sillyvg="true" template-height="1024" template-width="1024" version="1.1" viewBox="0 0 1024 1024" width="1024" xmlns="http://www.w3.org/2000/svg" xmlns:xlink="http://www.w3.org/1999/xlink"><defs node-id="89"></defs><path d="M 630.20 344.60 C 629.70 343.90 629.70 342.90 630.00 341.90 C 630.20 341.20 629.80 340.40 629.30 339.90 C 629.10 339.70 628.60 339.40 628.10 339.70 C 627.90 339.90 627.40 339.70 627.10 339.20 L 627.10 339.00 C 627.10 338.30 626.90 338.00 626.40 338.00 C 623.40 336.00 620.70 333.80 618.50 331.10 C 618.00 330.60 617.30 330.40 616.80 330.90 L 616.80 330.90 L 587.60 347.80 C 581.70 340.90 575.00 334.40 567.80 328.70 C 557.60 320.30 546.50 313.30 534.60 307.60 L 513.30 300.20 C 511.80 298.50 510.80 296.70 510.30 294.50 C 510.10 294.00 510.30 293.50 510.80 293.00 C 513.00 291.50 513.50 288.50 512.30 286.30 C 512.30 286.10 512.10 286.10 512.10 285.80 C 506.60 278.10 500.50 265.20 512.30 260.50 C 513.00 260.30 513.80 259.80 514.30 259.00 C 515.80 257.00 516.50 254.80 516.50 252.60 C 516.50 251.60 517.20 250.90 518.00 250.90 C 518.20 250.90 518.50 250.90 518.70 250.90 C 525.90 253.90 532.60 257.30 539.00 261.30 C 540.20 262.00 541.70 261.80 542.50 260.60 C 542.70 260.10 543.00 259.60 542.70 258.90 C 542.20 256.40 542.50 253.70 542.70 251.00 C 542.90 249.80 544.40 248.80 545.70 249.30 C 545.90 249.30 545.90 249.30 546.20 249.50 C 559.30 256.90 569.20 272.50 575.70 286.20 C 576.20 287.40 577.70 288.20 578.90 287.70 C 579.10 287.50 579.60 287.50 579.90 287.20 C 582.10 285.20 583.60 282.50 586.10 280.80 C 593.50 274.60 600.70 268.40 607.90 262.00 C 609.40 260.50 611.10 259.50 613.10 258.50 C 615.30 257.50 617.80 258.50 618.80 260.70 C 619.00 260.90 619.00 261.40 619.00 261.70 C 619.70 265.90 618.80 270.40 616.50 273.80 C 616.00 274.80 616.30 275.00 617.20 274.50 L 636.80 264.80 C 639.50 263.30 643.00 264.60 644.20 267.30 C 644.40 267.50 644.40 268.00 644.70 268.30 C 645.40 271.30 644.70 274.50 643.00 277.00 C 642.50 278.00 642.80 279.00 643.70 279.70 C 643.90 279.90 644.20 279.90 644.70 279.90 C 647.40 279.90 650.20 280.90 652.40 282.60 C 653.10 283.10 653.40 283.80 653.60 284.80 C 653.80 287.80 653.40 291.00 652.10 293.70 C 644.90 306.80 634.80 318.00 622.10 326.20 C 621.40 326.70 621.10 327.70 621.60 328.40 C 621.80 328.60 621.80 328.90 622.10 328.90 C 627.40 331.50 630.90 337.90 630.20 344.60 Z" fill="#fee09c" fill-rule="nonzero" node-id="93" stroke="none" target-height="98.999985" target-width="153.29999" target-x="500.5" target-y="248.8"></path><path d="M 425.70 254.90 C 414.10 268.00 402.70 280.70 391.30 292.80 C 389.30 295.50 387.80 298.50 386.80 301.70 C 380.40 295.00 372.20 290.10 363.50 287.10 C 364.50 285.40 366.20 283.90 368.20 283.40 C 369.20 282.90 370.20 283.20 370.90 283.90 C 371.90 284.60 372.40 285.60 372.60 286.90 C 372.80 287.90 373.80 288.90 374.80 288.60 C 375.00 288.60 375.50 288.40 375.80 288.10 C 383.20 282.40 390.20 276.20 396.90 269.50 C 398.90 267.50 401.60 265.80 404.30 265.00 C 405.00 264.80 405.80 264.30 406.30 263.80 C 409.30 260.10 412.70 256.60 416.70 253.90 C 419.50 251.20 422.70 251.70 425.70 254.90 Z" fill="#e0e9a6" fill-rule="nonzero" node-id="95" stroke="none" target-height="50.500015" target-width="62.200012" target-x="363.5" target-y="251.2"></path><path d="M 425.70 254.90 C 432.10 261.30 437.80 268.80 442.10 277.00 C 443.30 283.20 445.10 289.40 447.30 295.30 C 448.00 297.00 448.50 299.00 448.50 301.00 C 447.80 305.20 446.30 305.50 444.30 301.70 C 441.80 297.20 438.60 293.00 434.90 289.60 C 432.40 287.40 430.70 284.60 429.40 281.70 C 428.40 279.50 425.90 278.70 423.70 279.70 C 423.50 279.90 423.20 279.90 423.00 280.20 C 422.00 280.70 421.00 280.90 420.00 280.70 C 419.30 280.70 418.50 280.90 417.80 281.40 C 411.10 287.10 403.90 292.30 397.00 297.50 C 393.80 299.70 391.10 302.50 388.60 305.40 C 386.60 307.90 385.60 307.60 385.40 304.40 C 385.40 303.90 385.90 303.20 386.90 302.40 C 387.90 299.20 389.10 296.20 391.40 293.50 C 402.70 280.70 414.10 268.00 425.70 254.90 Z" fill="#819765" fill-rule="nonzero" node-id="97" stroke="none" target-height="53" target-width="63.100006" target-x="385.4" target-y="254.9"></path><path d="M 512.50 299.70 L 533.80 307.10 C 533.10 307.10 532.30 307.10 531.60 307.30 C 529.90 307.80 529.90 308.30 531.60 309.30 C 535.60 311.30 539.30 313.80 542.50 316.70 C 546.50 320.40 551.40 325.40 557.10 331.80 C 561.80 337.00 565.80 343.00 569.20 348.90 C 575.40 359.60 580.60 370.50 584.80 382.10 C 589.80 397.00 593.70 412.30 596.90 427.70 C 596.90 428.20 597.40 428.40 597.90 428.70 C 598.10 428.70 598.60 428.90 598.60 429.40 L 602.30 446.50 C 602.10 451.00 601.60 455.40 601.60 459.90 C 601.60 460.10 601.60 460.10 601.40 460.10 L 601.40 460.10 C 601.20 460.10 601.20 460.10 601.20 459.90 C 601.20 457.40 601.20 455.20 601.20 452.70 C 601.20 452.20 600.70 451.50 600.20 451.50 L 600.20 451.50 C 599.70 451.50 599.20 451.00 599.50 450.50 C 599.50 450.50 599.50 450.50 599.50 450.30 C 599.70 449.80 599.50 449.30 599.00 449.10 L 599.00 449.10 C 599.20 458.50 599.50 467.70 600.00 476.90 C 602.20 484.60 603.20 492.50 603.50 500.70 C 603.70 503.40 605.00 505.90 607.00 507.90 C 607.50 508.40 607.70 509.10 607.70 509.90 C 607.50 511.40 607.70 512.90 608.20 514.10 C 608.70 515.30 608.90 516.80 608.90 518.30 C 608.40 519.80 607.90 521.30 606.90 522.50 C 605.40 524.00 603.90 525.00 602.20 526.00 C 601.00 526.50 600.20 527.50 600.20 528.70 C 600.20 529.40 600.40 530.20 601.20 530.40 C 601.70 530.60 601.90 530.90 602.20 531.40 C 602.70 532.40 602.40 532.90 601.50 533.10 L 599.50 533.60 C 598.80 533.80 598.30 534.10 598.00 534.80 C 594.50 541.20 594.50 548.90 597.80 555.60 C 595.60 557.80 593.60 560.60 592.30 563.50 C 588.80 570.70 591.80 578.60 596.50 584.30 C 597.50 585.30 597.50 586.50 597.00 587.80 C 595.50 591.00 592.50 593.50 589.10 594.50 C 577.70 597.70 566.80 600.40 556.10 602.40 C 551.40 602.90 546.90 603.10 542.20 603.10 C 541.50 603.10 541.00 603.60 540.70 604.30 L 540.20 606.50 C 537.20 586.20 532.00 567.30 519.10 553.50 C 509.40 542.80 499.00 541.60 482.90 539.60 C 435.60 533.20 386.00 534.10 338.20 538.40 C 326.60 539.40 314.90 541.10 303.50 543.90 C 286.20 548.10 277.70 559.00 270.30 574.10 C 269.80 571.40 269.80 568.60 270.50 566.20 C 271.00 563.50 269.30 561.00 266.50 560.50 C 266.50 560.50 266.50 560.50 266.30 560.50 C 253.70 558.80 241.00 559.00 228.40 561.00 C 226.70 561.20 224.90 561.20 223.20 561.00 C 221.50 560.80 219.70 560.30 218.20 560.00 C 217.70 559.80 217.20 559.50 217.00 558.80 L 216.30 556.30 C 216.10 555.60 215.60 555.10 214.80 555.30 C 214.60 555.30 214.10 555.50 213.80 555.80 C 214.00 545.40 215.80 534.70 219.30 524.80 C 222.50 516.40 230.00 517.60 236.60 521.10 C 245.80 525.60 254.70 529.80 263.60 534.00 C 264.10 534.20 264.80 534.00 265.10 533.50 C 265.40 533.00 265.30 532.30 264.90 532.00 C 252.30 523.60 235.40 506.70 231.20 492.30 C 230.00 488.10 229.70 483.40 231.00 478.90 C 239.70 470.50 246.90 460.60 252.10 449.70 L 251.40 457.40 C 251.40 457.90 251.60 458.40 252.10 458.10 C 252.30 458.10 252.60 457.90 252.80 457.60 C 252.60 458.60 251.80 459.30 251.10 459.80 C 250.90 459.80 250.60 459.80 250.40 459.80 C 250.20 459.80 249.90 459.60 249.70 459.30 C 249.50 458.80 249.50 458.80 249.50 459.30 C 249.30 466.70 246.00 472.40 246.30 481.10 C 246.30 484.10 248.00 486.30 248.30 489.50 C 248.30 490.20 248.50 491.00 249.30 491.70 C 254.00 497.60 261.40 501.10 269.10 500.60 C 272.30 500.60 278.00 498.90 286.40 495.40 C 288.90 494.40 291.40 493.20 293.60 491.70 C 297.80 489.00 299.50 484.30 302.00 479.80 C 303.00 477.80 303.70 475.80 304.00 473.90 C 304.50 471.70 305.00 469.70 305.70 467.50 C 305.90 466.80 305.90 466.00 305.70 465.30 L 303.50 460.60 C 306.50 459.60 309.40 459.10 312.40 458.90 C 315.60 458.40 318.60 456.90 320.60 454.40 C 324.10 451.40 326.30 447.50 327.30 443.00 C 330.00 437.10 331.30 430.40 330.80 423.70 C 338.50 420.20 339.00 414.00 332.00 404.90 C 333.00 399.90 331.00 394.70 326.80 392.00 C 320.40 387.30 310.70 388.80 304.50 393.20 C 290.10 403.40 282.20 425.90 281.90 443.30 C 281.20 446.80 281.20 450.50 281.90 454.20 C 277.90 451.50 273.00 450.50 268.50 451.50 C 267.80 451.70 267.00 452.20 266.50 452.70 C 265.50 454.20 263.80 455.20 261.80 454.70 L 262.50 439.30 C 262.70 433.10 261.50 432.90 258.50 438.30 L 252.80 449.00 C 252.30 440.60 253.80 432.10 257.00 424.20 C 260.70 415.30 262.50 410.80 262.50 410.80 C 265.70 400.90 269.40 391.20 273.70 381.60 C 284.40 359.00 300.00 339.00 319.50 323.40 C 325.40 318.90 330.70 314.00 335.60 308.50 C 338.60 307.00 341.50 305.50 344.50 303.80 C 351.70 299.60 357.40 293.40 364.30 287.90 C 373.20 290.90 381.20 295.80 387.60 302.50 C 386.60 303.50 386.10 304.00 386.10 304.50 C 386.10 307.70 387.30 308.20 389.30 305.50 C 391.80 302.50 394.80 299.80 397.70 297.60 C 404.90 292.40 411.80 286.90 418.50 281.50 C 419.00 281.00 420.00 280.80 420.70 280.80 C 421.70 281.00 422.70 280.80 423.70 280.30 C 425.70 278.80 428.40 279.30 429.60 281.30 C 429.80 281.50 429.80 281.80 430.10 282.00 C 431.30 285.00 433.30 287.70 435.60 289.90 C 439.30 293.40 442.50 297.60 445.00 302.00 C 447.00 305.70 448.50 305.50 449.20 301.30 C 449.20 299.30 448.70 297.30 448.00 295.60 C 445.80 289.70 444.00 283.50 442.80 277.30 C 451.70 277.10 460.40 275.10 468.60 271.40 C 470.80 270.40 473.30 270.90 474.80 272.60 C 480.50 279.00 485.70 286.20 490.20 293.70 C 491.40 295.90 493.20 297.40 495.40 298.40 C 500.80 299.20 506.50 300.00 512.50 299.70 Z M 499.10 401.80 C 492.70 406.80 490.70 413.00 493.20 420.10 C 490.70 429.00 491.00 438.70 493.70 447.60 C 495.90 453.50 500.10 458.50 505.80 461.20 C 503.80 464.20 503.10 467.90 503.80 471.60 C 504.30 473.80 504.50 476.30 504.80 478.80 C 505.00 481.00 505.50 483.50 506.30 485.50 C 507.30 488.00 508.30 490.20 509.30 492.40 C 509.50 493.40 510.50 494.10 511.50 494.40 C 512.20 494.40 513.00 494.90 513.50 495.40 C 514.50 496.40 515.50 497.40 516.50 498.10 C 517.70 499.10 518.70 500.10 519.50 501.30 C 521.50 503.50 524.00 505.30 526.70 506.50 C 532.20 509.00 538.10 510.50 544.00 511.00 C 549.50 511.50 554.90 510.30 559.90 507.30 C 565.40 503.80 570.60 499.40 574.80 494.40 C 577.00 491.70 578.00 488.20 577.80 484.70 C 577.80 476.80 576.10 468.80 572.60 461.70 C 571.60 455.80 570.40 448.80 568.90 440.60 C 568.40 438.60 566.70 437.10 564.40 437.60 C 563.90 437.60 563.40 439.10 563.20 442.10 C 561.50 445.10 558.00 446.30 552.30 445.60 C 551.60 445.60 550.80 445.80 550.10 446.30 C 548.10 448.00 545.60 449.30 543.20 450.00 C 544.20 442.10 544.20 433.90 543.20 426.00 C 541.20 412.40 532.00 396.80 518.70 392.50 C 511.00 390.40 504.30 393.40 499.10 401.80 Z M 447.80 483.90 C 444.80 483.90 441.90 485.10 439.40 486.90 C 438.70 487.40 437.90 487.60 436.90 487.60 C 427.00 487.10 417.60 487.10 407.20 485.90 C 390.30 483.90 379.20 486.10 359.90 489.90 C 350.20 491.90 345.50 485.90 337.30 483.50 C 336.80 483.30 336.10 483.50 336.10 484.20 C 336.10 484.40 336.10 484.70 336.10 484.90 L 336.30 485.60 C 336.50 486.60 337.30 487.30 338.30 487.80 C 343.00 489.80 347.70 491.30 352.40 492.50 C 356.10 493.20 359.80 493.20 363.60 492.00 C 377.20 488.00 391.40 486.80 405.50 488.30 C 413.20 489.30 420.90 489.50 428.50 489.30 C 436.70 488.80 444.60 487.80 452.80 486.30 C 454.50 486.10 455.80 484.60 455.80 482.80 C 456.00 482.30 455.60 481.60 454.80 481.60 C 454.60 481.60 454.60 481.60 454.30 481.60 C 452.80 481.60 451.60 482.10 450.60 483.10 C 449.50 483.60 448.80 483.90 447.80 483.90 Z M 224.70 543.10 C 224.50 545.80 226.70 548.30 229.40 548.30 C 229.90 548.30 230.60 548.30 231.10 548.10 L 234.60 546.90 C 235.80 546.40 236.80 545.70 237.30 544.40 L 238.50 541.90 C 239.70 539.70 238.70 536.70 236.50 535.50 L 232.30 533.30 C 229.80 532.10 226.80 533.10 225.60 535.50 C 225.40 536.00 225.10 536.50 225.10 537.20 L 224.70 543.10 Z" fill="#a9b77c" fill-rule="nonzero" node-id="99" stroke="none" target-height="336.1" target-width="395.10004" target-x="213.8" target-y="270.4"></path><path d="M 533.80 307.20 C 545.70 312.90 556.80 320.10 567.00 328.30 C 574.20 334.00 580.90 340.20 586.80 347.40 L 608.40 374.90 C 608.60 376.40 609.40 377.90 610.40 379.10 C 612.40 384.60 614.60 390.00 617.10 395.20 C 618.10 397.20 620.30 401.90 623.80 409.80 C 626.00 414.80 629.00 419.50 632.70 423.40 C 634.40 425.40 635.40 424.90 635.70 422.40 C 636.70 404.60 635.00 386.70 630.50 369.60 L 627.50 342.60 C 627.50 342.40 627.50 342.40 627.70 342.40 L 627.70 342.40 L 628.40 342.60 C 628.60 342.60 628.90 342.80 628.90 343.10 L 629.60 347.80 C 629.80 348.80 629.80 348.80 630.10 347.80 C 630.30 347.30 630.30 346.60 630.30 346.10 L 633.50 365.20 C 634.00 367.90 635.20 373.10 637.20 380.80 C 639.90 391.50 640.70 402.40 639.90 413.30 L 638.20 438.30 C 638.40 449.90 636.20 461.30 631.50 472.00 L 621.30 478.70 C 619.30 479.90 618.30 482.40 619.30 484.40 C 622.80 494.60 627.00 504.70 631.40 514.60 C 635.60 523.50 638.60 532.90 640.30 542.90 C 640.50 544.60 641.80 546.10 643.30 546.90 L 651.70 550.90 C 661.10 554.90 667.60 559.80 670.50 570.00 C 673.00 577.90 674.00 581.90 681.40 588.60 C 684.90 592.10 686.60 597.00 686.90 601.70 L 682.90 613.10 C 670.00 604.40 658.60 594.00 648.90 581.90 C 646.70 579.20 645.40 579.40 645.20 583.10 C 644.20 595.70 638.80 610.60 629.10 618.80 C 619.40 627.00 606.30 632.40 594.70 628.50 C 588.80 626.30 587.30 623.80 590.20 620.80 C 592.40 623.30 594.20 625.30 597.90 624.30 C 600.60 623.60 603.40 622.30 605.60 620.80 L 613.50 622.30 C 614.50 622.50 615.20 622.30 616.00 621.60 C 620.20 617.90 625.90 615.90 629.90 611.90 C 638.60 603.20 641.50 591.60 638.80 577.20 C 640.80 571.00 638.30 563.80 631.60 555.90 C 631.80 555.70 632.10 555.20 632.30 554.70 C 632.50 554.20 632.80 553.50 633.30 553.20 C 634.80 551.50 635.00 549.00 633.80 547.00 C 632.80 544.00 632.10 540.80 631.80 537.60 C 631.10 532.60 628.80 528.20 625.40 524.70 C 620.40 519.50 614.00 518.50 606.30 522.20 C 607.30 521.00 607.80 519.50 608.30 518.00 C 608.30 516.50 608.10 515.00 607.60 513.80 C 607.10 512.60 607.10 511.10 607.10 509.60 C 607.10 508.90 606.90 508.10 606.40 507.60 C 604.40 505.60 603.20 503.10 602.90 500.40 C 602.90 492.50 601.70 484.50 599.40 476.60 C 599.60 474.10 599.90 471.60 600.10 469.40 C 600.30 466.90 600.80 464.70 601.80 462.20 C 603.50 457.00 603.50 451.50 602.30 446.30 L 598.60 429.20 C 598.60 429.00 598.40 428.50 597.90 428.50 C 597.40 428.50 597.20 428.00 596.90 427.50 C 593.70 412.10 589.70 396.80 584.80 381.90 C 580.60 370.50 575.10 359.30 568.90 348.90 C 565.40 342.70 561.50 337.00 556.80 331.80 C 551.10 325.60 546.40 320.40 542.20 316.70 C 539.00 313.70 535.30 311.20 531.30 309.30 C 529.60 308.60 529.60 307.80 531.30 307.30 C 532.30 307.40 533.00 307.20 533.80 307.20 Z M 622.00 473.20 C 627.00 468.70 629.70 467.50 630.70 460.10 C 631.90 451.90 633.40 443.00 634.90 433.60 C 635.40 431.40 634.70 428.90 632.90 427.20 L 621.20 415.00 C 620.70 414.50 619.70 414.50 619.20 415.00 C 619.00 415.20 619.00 415.50 618.70 415.70 C 617.50 421.90 617.00 428.30 617.20 434.50 C 617.70 445.70 618.40 457.10 619.40 468.90 C 619.40 470.10 619.60 471.60 620.40 472.90 C 620.70 473.50 621.20 473.70 622.00 473.20 Z" fill="#4e8e66" fill-rule="nonzero" node-id="101" stroke="none" target-height="325.2" target-width="157.30005" target-x="529.6" target-y="307.2"></path><path d="M 334.80 307.70 C 329.80 313.20 324.40 318.10 318.70 322.60 C 299.10 338.20 283.50 358.30 272.90 380.80 C 268.70 390.20 265.00 400.10 261.70 410.00 C 261.70 410.00 260.00 414.50 256.20 423.40 C 253.00 431.30 251.50 439.80 252.00 448.20 C 251.50 449.90 251.30 450.20 251.30 448.90 C 246.10 459.80 238.90 469.70 230.20 478.10 C 233.20 463.70 238.90 449.80 246.60 437.50 C 248.10 435.30 248.10 432.00 250.10 430.60 C 251.10 429.90 251.60 428.90 251.60 427.60 C 251.80 425.90 252.30 423.90 253.10 422.10 C 253.80 420.60 254.30 418.90 254.60 417.10 C 255.30 410.90 256.60 405.00 258.60 399.30 C 261.30 392.10 264.50 385.20 267.50 378.70 C 269.00 375.50 270.20 372.30 271.20 368.80 C 272.40 366.30 273.90 363.80 275.90 361.90 C 276.40 361.40 276.60 360.70 276.60 359.90 C 276.60 359.20 277.10 358.40 277.30 357.90 C 281.30 352.00 285.50 346.30 289.70 340.60 C 301.80 325.80 317.20 314.40 334.80 307.70 Z" fill="#e0e9a6" fill-rule="nonzero" node-id="103" stroke="none" target-height="170.4" target-width="104.59999" target-x="230.2" target-y="307.7"></path><path d="M 181.60 379.50 C 181.60 377.80 180.10 376.30 178.40 376.30 C 180.10 376.50 181.90 375.60 182.40 373.80 C 187.60 363.60 191.60 352.70 194.00 341.60 C 195.20 333.20 194.50 324.70 192.00 316.60 C 190.80 312.60 192.20 310.40 196.00 309.70 C 196.70 309.50 197.50 309.70 198.20 310.20 C 204.10 313.90 207.40 320.90 205.60 327.80 C 203.90 339.70 200.10 351.60 194.90 362.50 C 193.40 365.70 191.40 368.70 189.00 371.40 C 186.60 374.30 184.10 377.10 181.60 379.50 Z" fill="#ffd9bf" fill-rule="nonzero" node-id="105" stroke="none" target-height="70" target-width="29" target-x="178.4" target-y="309.5"></path><path d="M 167.70 346.60 C 153.60 346.10 142.70 317.40 164.00 316.90 C 173.20 316.70 179.10 321.60 181.80 331.50 C 183.00 336.00 178.10 340.90 174.10 344.10 C 172.40 345.60 170.20 346.60 167.70 346.60 Z" fill="#fee09c" fill-rule="nonzero" node-id="107" stroke="none" target-height="29.899994" target-width="40.300003" target-x="142.7" target-y="316.7"></path><path d="M 788.30 473.70 C 784.60 470.70 777.90 470.00 776.70 476.40 C 776.70 477.10 776.00 477.90 775.20 477.90 L 772.00 478.10 C 771.30 476.10 770.00 474.40 768.80 472.60 C 767.80 470.60 765.30 469.90 763.30 470.60 C 762.10 471.10 761.10 471.80 760.30 472.80 C 758.10 476.50 754.60 477.00 749.60 474.50 C 743.20 471.00 747.60 463.10 749.60 458.40 C 750.30 456.70 749.80 454.90 748.40 453.90 C 746.70 452.90 744.90 452.40 742.90 452.40 C 742.20 452.40 741.40 452.60 740.70 453.10 C 739.20 454.30 737.50 455.10 735.50 455.60 C 734.00 455.80 733.30 455.40 733.30 453.90 C 733.10 450.40 731.30 449.40 727.80 450.90 C 722.80 453.60 716.90 453.90 711.70 451.60 C 710.70 451.40 710.20 450.40 710.50 449.40 L 714.00 430.60 C 714.00 430.40 714.00 430.10 713.80 430.10 L 713.60 430.10 C 708.90 433.60 703.40 435.80 697.50 436.30 C 696.00 436.50 694.80 435.60 694.50 434.30 C 693.00 429.30 690.50 424.90 687.80 420.70 C 687.30 420.00 686.80 419.70 686.10 419.50 L 677.20 417.50 C 676.50 417.50 676.00 416.80 676.00 416.00 L 676.00 416.00 C 676.20 413.00 675.80 409.80 674.50 407.10 C 674.30 406.40 673.50 406.10 673.00 406.40 C 673.00 406.40 673.00 406.40 672.80 406.40 C 668.80 407.60 664.90 408.40 660.90 408.60 C 658.40 408.80 656.20 410.10 654.50 411.60 C 653.80 412.10 652.50 412.10 651.80 411.60 C 649.10 409.90 646.60 410.90 644.10 414.60 C 643.90 415.10 643.10 415.30 642.60 415.30 C 641.40 415.10 640.60 414.30 640.40 413.10 C 641.10 402.20 640.40 391.30 637.70 380.60 C 635.70 372.90 634.50 368.00 634.00 365.00 C 636.20 366.50 638.00 366.70 639.20 366.00 C 641.20 365.00 643.20 364.30 645.40 364.00 C 648.40 363.50 650.60 360.80 650.60 357.80 C 650.40 354.30 652.60 351.40 655.80 350.60 C 659.80 349.60 663.20 346.90 665.50 343.40 C 668.70 338.70 672.90 334.70 677.60 331.50 C 684.30 326.80 691.70 323.10 699.70 320.60 C 700.90 320.10 702.40 320.80 702.90 322.10 C 702.90 322.30 703.10 322.60 703.10 322.80 C 703.80 332.70 702.10 344.90 704.80 354.30 C 705.00 355.30 705.80 356.00 706.50 356.30 L 711.50 358.50 C 712.00 358.70 712.70 359.20 713.00 359.70 C 713.70 360.70 714.70 361.20 715.70 361.40 C 718.40 361.60 720.40 363.60 720.70 366.40 C 720.70 367.90 720.50 369.40 719.50 370.40 C 713.60 379.30 706.40 387.30 697.90 393.70 C 697.40 394.20 696.90 394.70 696.70 395.40 C 696.00 397.40 696.50 399.90 697.70 401.60 C 698.20 402.10 698.90 402.60 699.70 402.60 C 701.70 402.80 703.70 403.80 704.90 405.30 C 705.40 406.00 706.40 406.50 707.10 406.50 L 715.80 407.70 C 716.80 407.90 717.50 407.70 718.30 407.20 C 720.00 406.00 721.30 404.20 721.80 402.20 C 722.00 401.50 722.50 400.70 723.00 400.20 C 725.20 398.50 728.20 397.70 730.90 398.50 C 732.10 399.00 733.40 399.50 734.60 400.50 C 735.80 401.50 736.80 402.20 738.30 402.70 C 740.50 403.90 743.50 403.90 745.50 402.20 C 746.20 401.70 747.00 401.50 747.70 401.20 C 750.40 400.70 752.90 400.70 755.60 400.70 C 758.30 400.70 761.10 400.50 763.50 400.00 C 766.50 399.30 769.40 399.00 772.70 398.50 C 777.20 398.00 780.60 399.70 784.60 400.70 C 785.80 400.90 786.60 402.20 786.10 403.20 C 786.10 403.40 785.90 403.70 785.60 403.90 C 782.90 407.40 779.90 410.80 776.90 414.10 C 775.90 415.10 775.20 416.30 774.90 417.80 C 774.20 419.80 775.10 421.80 776.90 422.80 C 777.40 423.30 778.10 423.80 778.40 424.30 C 779.40 426.30 780.90 427.80 782.60 429.00 C 783.30 429.50 783.80 430.00 784.10 431.00 L 785.80 435.00 C 786.00 435.70 786.80 436.20 787.50 436.00 L 787.70 436.00 C 791.20 434.50 795.10 435.80 797.10 438.70 C 799.30 441.40 798.80 445.40 796.10 447.40 C 795.90 447.60 795.90 447.60 795.60 447.60 C 792.40 449.60 788.40 449.80 783.70 447.80 C 783.00 447.60 782.00 447.60 781.20 447.80 C 778.00 449.00 775.70 452.00 775.50 455.50 C 775.30 456.50 775.70 457.50 776.50 458.00 L 779.50 460.20 C 780.00 460.70 780.70 461.20 781.00 461.90 L 788.30 473.70 Z M 797.20 444.20 L 795.00 438.70 C 794.50 437.70 793.30 437.20 792.30 437.50 L 792.00 437.50 C 786.80 439.70 783.60 443.20 784.60 445.70 L 784.80 446.20 C 785.80 448.70 790.70 448.90 796.00 446.70 L 796.20 446.50 C 797.20 446.40 797.70 445.20 797.20 444.20 L 797.20 444.20 Z" fill="#feebe5" fill-rule="nonzero" node-id="109" stroke="none" target-height="158" target-width="165.29999" target-x="634" target-y="320.1"></path><path d="M 626.00 337.90 C 625.30 339.40 624.00 340.90 622.50 341.90 C 621.80 342.40 621.50 343.10 621.30 343.90 C 620.80 346.10 619.80 348.40 618.80 350.60 C 617.80 352.60 617.10 354.80 616.60 357.00 C 616.40 359.20 615.90 361.50 615.40 363.70 C 615.20 364.40 614.70 365.20 614.20 365.70 C 611.20 368.20 609.20 371.40 608.70 375.10 L 587.00 347.60 L 616.20 330.70 C 616.70 330.20 617.70 330.50 617.90 330.90 L 617.90 330.90 C 620.30 333.70 623.00 335.90 626.00 337.90 Z" fill="#f6f7f9" fill-rule="nonzero" node-id="111" stroke="none" target-height="44.899994" target-width="39" target-x="587" target-y="330.2"></path><path d="M 178.40 376.60 C 180.10 376.60 181.60 378.10 181.60 379.80 C 186.10 387.50 190.00 394.90 193.70 402.10 C 195.20 404.30 195.90 406.80 196.40 409.50 C 196.40 414.70 194.90 415.20 192.20 410.70 C 186.70 402.30 182.00 393.40 177.80 384.20 C 177.60 383.50 176.60 383.00 175.80 383.20 C 165.60 386.90 154.20 385.40 145.60 379.00 C 138.40 374.00 127.30 365.10 126.50 355.70 C 125.80 346.00 129.70 338.10 138.40 332.20 C 140.10 331.00 142.60 331.50 143.90 333.20 C 143.90 333.20 143.90 333.20 143.90 333.40 C 150.80 345.00 157.50 356.70 164.00 368.60 C 166.70 373.80 171.50 376.60 178.40 376.60 Z" fill="#fda567" fill-rule="nonzero" node-id="113" stroke="none" target-height="84.20001" target-width="70.59999" target-x="125.8" target-y="331"></path><path d="M 626.00 337.90 C 626.20 337.90 626.50 338.10 626.70 338.90 C 626.70 339.10 626.90 339.60 627.40 339.60 L 627.60 339.60 C 628.10 339.40 628.60 339.60 628.80 339.80 C 629.50 340.30 629.80 341.00 629.50 341.80 C 629.30 342.80 629.50 343.80 629.70 344.50 C 629.90 345.00 630.20 345.50 629.90 346.00 C 629.90 346.50 629.90 347.20 629.70 347.70 C 629.50 348.70 629.20 348.70 629.20 347.70 L 628.50 343.00 C 628.50 342.80 628.30 342.50 628.00 342.50 L 627.30 342.30 C 627.10 342.30 627.10 342.30 627.10 342.50 L 627.10 342.50 L 630.10 369.50 C 629.90 370.00 629.10 370.20 628.60 370.50 C 628.10 370.50 627.60 370.30 627.10 370.30 C 625.90 370.10 624.40 370.10 623.40 370.50 C 618.40 372.50 614.00 375.50 610.30 379.20 C 609.30 378.00 608.60 376.50 608.30 375.00 C 609.00 371.30 611.00 367.80 613.80 365.60 C 614.50 365.10 614.80 364.40 615.00 363.60 C 615.50 361.40 616.00 359.10 616.20 356.90 C 616.40 354.70 617.20 352.40 618.40 350.50 C 619.40 348.50 620.40 346.30 620.90 343.80 C 621.10 343.10 621.40 342.30 622.10 341.80 C 624.00 340.60 625.20 339.40 626.00 337.90 Z" fill="#a7b9ac" fill-rule="nonzero" node-id="115" stroke="none" target-height="41.30002" target-width="21.900024" target-x="608.3" target-y="337.9"></path><path d="M 630.70 369.40 C 635.20 386.70 636.90 404.60 635.90 422.20 C 635.90 424.90 634.90 425.20 632.90 423.20 C 629.20 419.20 626.20 414.50 624.00 409.60 C 620.50 401.90 618.30 397.00 617.30 395.00 C 614.60 389.80 612.30 384.30 610.60 378.90 C 614.30 375.20 618.80 372.20 623.70 370.20 C 624.90 369.70 626.20 369.50 627.40 370.00 C 627.90 370.20 628.40 370.20 628.90 370.20 C 629.70 370.40 630.20 370.10 630.70 369.40 Z" fill="#469da7" fill-rule="nonzero" node-id="117" stroke="none" target-height="55.80002" target-width="26.300049" target-x="610.6" target-y="369.4"></path><path d="M 331.30 404.30 C 321.60 393.90 311.70 394.40 301.60 405.30 C 299.90 407.30 300.10 410.00 301.80 411.70 C 302.00 411.90 302.30 412.20 302.50 412.20 C 305.50 413.90 307.20 417.20 307.20 420.60 L 307.00 423.10 C 303.30 425.10 299.30 426.10 295.40 426.60 C 291.40 426.80 287.70 429.30 286.50 433.30 C 285.50 434.80 285.00 436.50 285.00 438.30 C 284.50 440.30 283.80 442.00 282.80 443.80 C 282.30 444.50 281.80 444.00 281.10 442.60 C 281.30 425.50 289.30 402.90 303.70 392.50 C 309.90 388.00 319.60 386.60 326.00 391.30 C 330.30 394.20 332.50 399.40 331.30 404.30 Z" fill="#0c0809" fill-rule="nonzero" node-id="119" stroke="none" target-height="57.899994" target-width="51.399994" target-x="281.1" target-y="386.6"></path><path d="M 543.40 450.40 C 542.70 453.10 541.20 455.60 538.90 457.60 C 537.90 457.40 537.40 456.60 537.70 455.60 C 538.90 454.10 539.70 452.40 539.90 450.40 L 539.70 438.50 C 539.50 436.50 538.50 434.50 537.00 433.30 C 535.00 432.10 532.80 430.60 530.60 429.10 C 529.90 428.60 529.10 428.40 528.40 428.60 C 524.40 429.10 520.70 430.10 517.00 431.30 C 511.80 433.30 506.60 434.80 501.40 436.30 C 500.70 436.50 499.90 437.00 499.70 437.80 C 498.50 440.30 497.70 443.00 498.00 445.50 C 498.00 446.20 497.80 447.00 497.00 447.50 C 496.50 448.20 495.30 448.20 494.50 447.70 L 494.30 447.50 C 491.60 438.60 491.30 429.20 493.80 420.00 C 495.30 419.80 496.80 420.20 497.80 421.00 C 504.50 426.90 513.90 428.20 521.80 424.20 C 526.30 422.50 529.20 418.50 530.00 413.80 C 531.00 407.90 523.10 401.40 517.90 400.40 C 514.20 399.70 508.00 400.20 499.60 401.90 C 504.80 393.50 511.50 390.50 519.40 393.00 C 532.80 397.20 542.00 412.80 543.90 426.50 C 544.40 434.30 544.40 442.50 543.40 450.40 Z" fill="#0c0809" fill-rule="nonzero" node-id="121" stroke="none" target-height="67.100006" target-width="53.100037" target-x="491.3" target-y="390.5"></path><path d="M 331.30 404.30 C 338.50 413.50 338.00 419.70 330.10 423.10 C 320.70 427.80 313.00 427.10 307.30 420.60 C 307.30 417.10 305.60 413.90 302.60 412.20 C 300.40 411.00 299.60 408.20 301.10 406.00 C 301.30 405.80 301.30 405.50 301.60 405.30 C 311.70 394.40 321.60 393.90 331.30 404.30 Z" fill="#f6f7f9" fill-rule="nonzero" node-id="123" stroke="none" target-height="33.899994" target-width="38.899994" target-x="299.6" target-y="393.9"></path><path d="M 493.10 420.20 C 490.60 413.00 492.60 406.80 499.00 401.90 C 507.40 400.20 513.40 399.70 517.30 400.40 C 522.30 401.40 530.20 408.10 529.40 413.80 C 528.70 418.50 525.70 422.50 521.20 424.20 C 513.30 428.20 503.60 426.90 497.20 421.00 C 496.10 420.40 494.60 419.90 493.10 420.20 Z" fill="#f6f7f9" fill-rule="nonzero" node-id="125" stroke="none" target-height="28.5" target-width="39.600006" target-x="490.6" target-y="399.7"></path><path d="M 771.90 477.90 C 774.40 480.60 775.60 484.10 775.60 487.80 C 768.70 488.30 762.70 487.80 756.00 489.80 C 747.80 492.00 739.40 494.00 730.70 495.70 C 729.70 495.00 729.00 494.00 728.50 492.70 C 729.00 489.70 727.80 487.00 725.80 485.00 C 720.30 480.00 715.10 478.80 709.90 481.50 C 708.40 482.00 707.90 480.80 708.70 477.30 C 708.90 476.60 708.70 475.80 708.50 475.10 C 707.00 472.40 705.00 469.90 702.60 468.20 C 699.90 466.20 696.20 466.20 692.70 464.50 C 692.00 464.00 691.50 463.50 691.20 462.80 C 688.00 456.40 677.30 453.60 670.90 453.10 C 670.20 453.10 669.40 453.10 668.70 453.60 C 662.00 457.10 659.00 450.10 655.80 445.90 C 652.60 441.70 647.90 440.70 643.20 438.50 C 642.50 438.30 642.00 437.80 642.00 437.00 C 642.00 436.50 641.80 436.30 641.30 436.00 C 640.60 435.50 640.10 435.80 640.10 436.70 C 640.10 438.20 639.60 438.90 638.60 438.40 L 640.10 413.10 C 640.30 414.30 641.10 415.10 642.30 415.30 C 642.80 415.30 643.50 415.10 643.80 414.60 C 646.00 410.90 648.80 409.90 651.50 411.60 C 652.20 412.10 653.50 412.10 654.20 411.60 C 655.90 409.90 658.20 408.90 660.60 408.60 C 664.60 408.40 668.80 407.60 672.50 406.40 C 673.20 406.20 674.00 406.40 674.20 407.10 C 674.20 407.10 674.20 407.10 674.20 407.30 C 675.40 410.00 675.90 413.20 675.70 416.20 C 675.50 416.90 675.90 417.70 676.70 417.70 L 676.70 417.70 L 685.60 419.70 C 686.30 419.90 687.10 420.20 687.30 420.90 C 690.30 425.10 692.50 429.60 694.00 434.50 C 694.20 436.00 695.70 436.70 697.00 436.50 C 702.70 436.00 708.40 433.80 713.10 430.30 C 713.30 430.10 713.60 430.30 713.60 430.30 L 713.60 430.50 L 710.10 449.30 C 709.90 450.30 710.30 451.30 711.30 451.50 C 716.50 453.70 722.50 453.50 727.40 450.80 C 730.60 449.30 732.40 450.10 732.90 453.80 C 732.90 455.30 733.90 455.80 735.10 455.50 C 737.10 455.00 738.80 454.30 740.30 453.00 C 741.00 452.50 741.80 452.30 742.50 452.30 C 744.50 452.30 746.20 452.80 748.00 453.80 C 749.50 454.80 750.00 456.80 749.20 458.30 C 747.20 463.00 743.00 470.90 749.20 474.40 C 753.90 476.90 757.40 476.40 759.90 472.70 C 760.60 471.70 761.60 470.70 762.90 470.50 C 764.90 469.80 767.40 470.50 768.40 472.50 C 769.90 474.20 770.90 476.20 771.90 477.90 Z" fill="#feaf3a" fill-rule="nonzero" node-id="127" stroke="none" target-height="89.5" target-width="137" target-x="638.6" target-y="406.2"></path><path d="M 630.70 460.10 C 629.50 467.50 627.00 468.80 622.00 473.20 C 621.30 473.70 620.80 473.70 620.50 473.00 C 620.00 471.80 619.50 470.50 619.50 469.30 C 618.50 457.40 617.80 445.80 617.30 434.90 C 617.10 428.50 617.50 422.30 618.80 416.10 C 619.00 415.40 619.80 414.90 620.50 414.90 C 620.70 414.90 621.00 415.10 621.20 415.40 L 632.80 427.50 C 634.50 429.20 635.30 431.50 634.80 433.90 C 633.40 443.00 631.90 451.60 630.70 460.10 Z" fill="#a9b77c" fill-rule="nonzero" node-id="129" stroke="none" target-height="58.80002" target-width="18.200012" target-x="617.1" target-y="414.9"></path><path d="M 307.50 420.70 C 313.20 427.10 320.90 427.90 330.30 423.20 C 330.80 429.90 329.60 436.30 326.80 442.50 C 325.80 444.00 324.80 444.50 323.80 444.20 C 323.10 444.00 322.60 443.20 322.60 442.50 C 322.80 439.80 322.60 437.00 321.90 434.30 C 321.70 433.60 321.20 432.80 320.40 432.60 C 317.40 430.90 314.20 429.60 310.70 429.10 C 304.80 428.60 298.60 428.60 292.60 428.90 C 292.40 428.90 292.40 428.90 292.40 428.70 C 292.40 428.70 292.40 428.50 292.60 428.50 L 292.60 428.50 L 300.50 428.30 C 301.20 428.30 301.70 428.10 302.20 427.80 L 307.40 424.60 C 307.60 424.60 307.60 424.40 307.60 424.40 L 307.60 424.40 L 307.40 423.90 L 307.50 420.70 Z" fill="#1d0e13" fill-rule="nonzero" node-id="131" stroke="none" target-height="23.799988" target-width="38.399994" target-x="292.4" target-y="420.7"></path><path d="M 307.30 423.40 L 307.50 423.90 C 307.50 424.10 307.50 424.10 307.50 424.40 L 307.50 424.40 L 302.30 427.60 C 301.80 427.80 301.10 428.10 300.60 428.10 L 292.70 428.30 C 292.70 428.30 292.50 428.30 292.50 428.50 L 292.50 428.50 C 292.50 428.70 292.70 428.70 292.70 428.70 C 298.60 428.50 304.80 428.50 310.80 428.90 C 314.30 429.40 317.50 430.60 320.50 432.40 C 321.20 432.60 321.70 433.40 322.00 434.10 C 322.70 436.80 323.00 439.60 322.70 442.30 C 322.70 443.00 322.90 443.80 323.90 444.00 C 324.90 444.50 325.90 443.80 326.90 442.30 C 325.90 446.80 323.40 450.70 320.20 453.70 C 314.00 453.50 312.50 451.00 315.50 446.30 C 316.70 446.50 317.20 443.80 316.70 437.90 C 316.70 436.90 316.00 436.40 315.20 436.20 L 286.90 433.00 C 288.10 429.30 291.90 426.60 295.80 426.30 C 299.60 426.40 303.50 425.10 307.30 423.40 Z" fill="#0b0e1e" fill-rule="nonzero" node-id="133" stroke="none" target-height="30.300018" target-width="40" target-x="286.9" target-y="423.4"></path><path d="M 539.50 438.50 C 532.60 436.80 525.40 436.50 518.40 438.00 C 516.70 438.20 516.70 438.50 518.40 438.70 L 520.60 438.90 L 505.00 439.40 C 502.50 439.40 500.50 441.10 500.00 443.40 C 498.50 450.80 501.50 455.80 508.70 458.80 C 514.40 461.30 520.80 462.30 527.00 461.80 C 531.00 460.80 534.70 458.60 537.40 455.60 C 537.20 456.60 537.60 457.10 538.60 457.60 C 529.70 466.80 516.80 465.00 505.40 461.30 C 499.70 458.60 495.20 453.60 493.30 447.70 C 493.80 448.40 495.00 448.40 495.80 447.90 L 496.00 447.70 C 496.50 447.20 497.00 446.50 497.00 445.70 C 497.00 443.00 497.50 440.20 498.70 438.00 C 498.90 437.30 499.70 436.80 500.40 436.50 C 505.90 435.00 511.10 433.50 516.00 431.50 C 519.70 430.00 523.40 429.30 527.40 428.80 C 528.10 428.80 528.90 428.80 529.60 429.30 C 531.80 430.80 534.10 432.30 536.00 433.50 C 538.00 434.50 539.20 436.50 539.50 438.50 Z" fill="#0b0e1e" fill-rule="nonzero" node-id="135" stroke="none" target-height="38" target-width="46.200012" target-x="493.3" target-y="428.8"></path><path d="M 286.70 433.30 L 315.00 436.30 C 316.00 436.30 316.50 437.00 316.50 438.00 C 317.00 443.90 316.50 446.90 315.30 446.40 L 315.10 442.70 C 315.10 442.50 315.10 442.50 315.30 442.70 C 315.80 443.90 314.80 445.90 312.30 448.60 C 314.00 442.90 313.30 440.40 310.10 440.70 C 309.60 439.70 308.60 439.00 307.40 438.70 C 300.00 437.70 292.50 437.50 285.30 438.20 C 285.20 436.50 285.70 434.80 286.70 433.30 Z" fill="#4d3a6a" fill-rule="nonzero" node-id="137" stroke="none" target-height="15.300018" target-width="31.799988" target-x="285.2" target-y="433.3"></path><path d="M 261.20 454.10 L 252.00 457.30 C 251.80 457.50 251.50 457.80 251.30 457.80 C 250.80 457.80 250.60 457.60 250.60 457.10 L 251.30 449.40 C 251.50 450.60 251.80 450.40 252.00 448.70 L 257.70 438.00 C 260.70 432.50 261.90 433.00 261.70 439.00 L 261.20 454.10 Z" fill="#4d1610" fill-rule="nonzero" node-id="139" stroke="none" target-height="25.299988" target-width="11.299988" target-x="250.6" target-y="432.5"></path><path d="M 710.00 481.40 L 696.60 502.50 C 696.10 503.20 695.90 504.20 696.40 505.00 L 700.40 515.70 C 700.90 516.90 702.40 517.70 703.60 516.90 C 703.80 516.90 704.10 516.70 704.30 516.40 L 728.60 492.60 C 729.10 493.80 729.80 494.80 730.80 495.60 C 722.40 501.30 717.20 505.50 715.20 508.20 C 703.60 524.10 694.90 546.60 699.30 566.40 C 699.50 567.10 700.00 567.90 700.80 568.40 L 707.00 572.10 C 707.70 572.60 708.50 572.60 709.20 572.30 C 710.20 572.10 710.90 571.10 710.70 570.10 L 710.70 569.90 C 711.40 570.90 712.70 571.60 713.90 571.10 L 717.60 581.00 C 718.30 583.00 717.40 585.00 715.60 585.70 L 715.60 585.70 C 710.40 587.70 704.70 587.40 699.50 585.20 C 698.50 584.70 697.30 585.00 696.50 585.90 C 694.80 588.10 693.50 590.60 692.80 593.30 C 692.60 594.00 692.80 594.80 693.50 595.50 C 694.70 596.50 696.20 597.20 698.00 597.70 L 687.80 594.50 C 687.10 594.30 686.60 593.80 686.30 592.80 C 686.10 590.30 686.10 587.60 686.50 585.10 C 686.70 584.10 686.30 583.10 685.30 582.90 C 684.60 582.70 684.10 582.90 683.80 583.60 C 683.80 585.60 682.80 587.30 681.30 588.60 C 673.90 581.90 673.10 577.70 670.40 570.00 C 667.20 560.10 661.00 555.10 651.60 550.90 C 653.30 545.90 655.60 540.70 657.80 536.00 C 659.80 532.80 659.00 528.80 656.30 526.30 C 654.80 525.10 654.80 522.80 655.80 521.30 C 659.00 516.10 662.70 511.40 666.70 506.70 C 670.40 502.50 671.70 496.80 677.90 495.30 C 681.90 494.30 682.10 492.80 678.40 490.60 C 675.40 488.90 672.50 486.90 669.70 484.70 C 666.00 481.70 664.70 482.50 665.70 487.20 C 667.40 494.60 657.80 497.40 652.30 498.40 C 651.30 498.40 650.60 498.20 649.80 497.40 C 646.80 493.90 643.60 490.50 640.10 487.50 C 637.60 484.80 635.60 481.80 634.20 478.60 C 634.00 477.90 633.20 477.40 632.50 477.10 C 630.30 476.40 630.00 474.60 631.50 472.10 C 636.00 461.40 638.20 450.00 638.20 438.40 C 639.20 438.90 639.70 438.20 639.70 436.70 C 639.70 435.70 639.90 435.50 640.90 436.00 C 641.10 436.20 641.40 436.70 641.60 437.00 C 641.80 437.70 642.30 438.20 642.80 438.50 C 647.50 440.70 652.00 441.50 655.40 445.90 C 658.80 450.30 661.80 457.10 668.30 453.60 C 669.00 453.10 669.80 453.10 670.50 453.10 C 676.90 453.60 687.80 456.30 690.80 462.80 C 691.00 463.50 691.80 464.00 692.30 464.50 C 695.50 466.50 699.50 466.20 702.20 468.20 C 704.70 470.20 706.70 472.40 708.10 475.10 C 708.30 475.80 708.60 476.60 708.30 477.30 C 708.20 480.60 708.50 482.10 710.00 481.40 Z" fill="#ffc156" fill-rule="nonzero" node-id="141" stroke="none" target-height="162.20001" target-width="100.79999" target-x="630" target-y="435.5"></path><path d="M 310.20 440.70 C 311.40 443.20 312.40 445.90 312.40 448.60 C 314.90 445.90 315.90 443.90 315.40 442.70 C 315.40 442.50 315.20 442.50 315.20 442.70 L 315.40 446.40 C 312.40 450.90 313.90 453.30 320.10 453.80 C 317.90 456.30 314.90 457.80 311.90 458.30 C 308.90 458.50 306.00 459.00 303.00 460.00 L 298.00 460.50 C 291.80 460.30 285.90 457.80 281.40 453.30 C 280.70 449.80 280.70 446.10 281.40 442.40 C 282.10 443.90 282.90 444.10 283.10 443.60 C 284.10 441.90 284.80 440.10 285.30 438.10 C 292.70 437.40 300.20 437.60 307.40 438.60 C 308.50 438.80 309.50 439.50 310.20 440.70 Z" fill="#278888" fill-rule="nonzero" node-id="143" stroke="none" target-height="23.100006" target-width="39.399994" target-x="280.7" target-y="437.4"></path><path d="M 539.50 438.50 L 539.70 450.40 C 539.50 447.40 538.70 444.70 537.00 442.20 C 536.50 441.50 535.80 441.00 535.00 441.00 L 520.40 439.00 L 518.20 438.80 C 516.50 438.60 516.50 438.30 518.20 438.10 C 525.30 436.80 532.50 436.80 539.50 438.50 Z" fill="#4d3a6a" fill-rule="nonzero" node-id="145" stroke="none" target-height="13.600006" target-width="23.200012" target-x="516.5" target-y="436.8"></path><path d="M 572.90 462.10 C 571.40 463.10 569.40 463.10 567.90 462.10 C 566.70 461.10 565.90 459.60 565.90 458.10 C 564.90 452.90 564.20 447.70 563.70 442.20 C 563.90 439.50 564.20 438.00 564.90 437.70 C 566.90 437.50 568.90 438.70 569.40 440.70 C 570.70 449.20 571.90 456.10 572.90 462.10 Z" fill="#2c0707" fill-rule="nonzero" node-id="147" stroke="none" target-height="25.600006" target-width="9.200012" target-x="563.7" target-y="437.5"></path><path d="M 520.60 439.00 L 535.20 441.00 C 535.90 441.00 536.70 441.50 537.20 442.20 C 538.90 444.70 539.70 447.40 539.90 450.40 C 539.70 452.40 538.90 454.10 537.70 455.60 C 535.00 458.60 531.30 460.80 527.30 461.80 C 521.10 462.50 514.70 461.30 509.00 458.80 C 501.60 455.80 498.80 450.90 500.30 443.40 C 500.80 440.90 502.80 439.20 505.30 439.40 L 520.60 439.00 Z M 531.30 441.50 C 527.80 439.50 523.60 439.50 520.40 441.50 C 519.70 442.00 518.90 442.00 518.20 442.00 C 517.00 442.00 515.70 442.00 514.50 442.20 C 513.30 442.40 513.50 442.70 514.50 442.90 C 517.20 443.60 520.20 443.10 522.70 441.90 C 527.20 439.40 532.10 443.10 534.10 447.10 C 534.10 447.30 534.60 447.60 534.80 447.30 L 537.30 446.60 C 537.80 446.40 538.00 446.10 537.50 445.60 C 535.70 444.00 533.80 442.50 531.30 441.50 Z" fill="#278888" fill-rule="nonzero" node-id="149" stroke="none" target-height="23.5" target-width="41.100037" target-x="498.8" target-y="439"></path><path d="M 531.30 441.50 C 533.80 442.50 535.80 443.70 537.50 445.70 C 537.70 446.20 537.70 446.40 537.30 446.70 L 534.80 447.40 C 534.60 447.40 534.30 447.40 534.10 447.20 C 532.10 443.20 527.20 439.50 522.70 442.00 C 520.20 443.50 517.20 443.70 514.50 443.00 C 513.30 442.80 513.30 442.50 514.50 442.30 C 515.70 442.10 517.00 441.80 518.20 442.10 C 518.90 442.10 519.70 442.10 520.40 441.60 C 523.90 439.50 527.80 439.50 531.30 441.50 Z" fill="#185b84" fill-rule="nonzero" node-id="151" stroke="none" target-height="7.899994" target-width="24.400024" target-x="513.3" target-y="439.5"></path><path d="M 310.20 440.70 C 313.40 440.50 314.20 442.90 312.40 448.60 C 312.20 445.70 311.50 443.20 310.20 440.70 Z" fill="#185b84" fill-rule="nonzero" node-id="153" stroke="none" target-height="8.100006" target-width="4" target-x="310.2" target-y="440.5"></path><path d="M 563.70 442.50 C 563.90 447.70 564.70 453.20 565.90 458.40 C 566.10 459.90 566.90 461.40 567.90 462.40 C 569.40 463.40 571.40 463.40 572.90 462.40 C 576.40 469.60 578.10 477.50 578.10 485.40 C 578.30 488.90 577.40 492.30 575.10 495.10 C 570.90 500.10 565.70 504.50 560.20 508.00 C 555.50 511.00 550.00 512.20 544.30 511.70 C 538.40 511.20 532.40 509.70 527.00 507.20 C 524.30 506.00 521.80 504.20 519.80 502.00 C 518.80 500.80 517.80 499.80 516.80 498.80 C 515.80 497.80 514.80 497.10 513.80 496.10 C 513.30 495.60 512.60 495.10 511.80 495.10 C 510.80 494.90 510.10 494.10 509.60 493.10 C 508.60 490.90 507.40 488.60 506.60 486.20 C 505.90 484.00 505.40 481.70 505.10 479.50 C 504.90 477.00 504.60 474.80 504.10 472.30 C 503.10 468.80 503.90 464.90 506.10 461.90 C 517.30 465.60 530.10 467.10 539.30 458.20 C 541.50 456.50 543.30 454.00 543.80 451.00 C 546.30 450.30 548.80 449.00 550.70 447.30 C 551.20 446.80 552.20 446.60 552.90 446.60 C 558.30 446.70 562.00 445.40 563.70 442.50 Z M 567.70 464.30 C 566.50 462.80 564.00 462.60 562.50 464.10 C 562.00 464.60 561.80 465.10 561.50 465.60 C 559.30 469.30 556.30 472.50 552.80 475.30 C 551.60 476.30 550.10 476.00 549.10 474.80 C 548.90 474.60 548.90 474.30 548.60 474.10 L 547.10 469.60 C 546.10 466.90 543.10 465.40 540.40 466.40 C 540.20 466.60 539.70 466.60 539.40 466.90 C 536.90 468.40 534.70 469.90 532.20 471.40 C 529.70 472.90 527.50 475.10 526.50 477.60 C 524.30 483.80 525.00 491.20 530.50 495.70 C 540.40 503.40 550.30 503.10 560.50 494.70 C 567.00 489.60 577.10 471.50 567.70 464.30 Z" fill="#ffa246" fill-rule="nonzero" node-id="155" stroke="none" target-height="69.70001" target-width="75.19998" target-x="503.1" target-y="442.5"></path><path d="M 602.20 446.20 C 603.40 451.40 603.20 456.90 601.70 461.80 C 601.00 464.00 600.20 466.50 600.00 469.00 C 599.80 471.50 599.50 474.00 599.30 476.20 C 598.80 467.00 598.30 457.90 598.30 448.40 C 598.80 448.60 599.00 449.10 598.80 449.60 L 598.80 449.60 C 598.60 450.10 598.80 450.60 599.30 450.80 C 599.30 450.80 599.30 450.80 599.50 450.80 C 600.00 450.80 600.70 451.30 600.70 451.80 L 600.70 451.80 C 600.70 454.30 600.70 456.80 600.70 459.00 C 600.70 459.20 600.70 459.20 600.90 459.20 L 600.90 459.20 C 601.10 459.20 601.10 459.20 601.10 459.00 C 601.70 455.10 601.90 450.70 602.20 446.20 Z" fill="#89a479" fill-rule="nonzero" node-id="157" stroke="none" target-height="30" target-width="5.1000366" target-x="598.3" target-y="446.2"></path><path d="M 281.20 453.40 C 285.70 457.60 291.60 460.10 297.80 460.30 C 297.60 460.80 297.80 461.50 298.30 462.00 C 298.80 462.20 299.30 462.50 299.80 462.70 C 300.50 462.90 301.30 463.20 301.80 463.40 C 302.50 463.60 303.00 464.40 303.00 465.10 C 303.20 467.10 303.00 469.10 302.30 470.80 C 301.30 473.50 300.60 475.30 300.30 476.00 C 298.30 483.90 292.90 490.90 285.40 494.60 C 277.00 498.10 271.30 499.80 268.10 499.80 C 260.40 500.30 253.00 496.80 248.30 490.90 C 247.80 490.40 247.60 489.70 247.30 488.70 C 247.10 485.50 245.30 483.20 245.30 480.30 C 245.10 471.90 248.00 466.20 248.50 458.50 C 248.50 458.00 248.50 458.00 248.70 458.50 C 248.90 458.70 249.20 459.00 249.40 459.00 C 249.60 459.00 249.90 459.00 250.10 459.00 C 250.80 458.50 251.60 457.80 251.80 456.80 L 261.00 453.60 C 262.70 453.80 264.70 453.10 265.70 451.60 C 266.20 450.90 266.70 450.40 267.70 450.40 C 272.30 449.70 277.30 450.70 281.20 453.40 Z M 286.90 467.30 C 282.90 461.10 273.00 460.40 264.80 465.60 C 256.60 470.80 253.40 480.00 257.40 486.40 C 261.40 492.80 271.30 493.30 279.50 488.10 C 287.70 482.90 290.90 473.70 286.90 467.30 Z" fill="#ff8f53" fill-rule="nonzero" node-id="159" stroke="none" target-height="50.599976" target-width="58.100006" target-x="245.1" target-y="449.7"></path><path d="M 302.80 460.10 L 305.00 464.80 C 305.20 465.50 305.20 466.30 305.00 467.00 C 304.30 469.00 303.50 471.20 303.30 473.40 C 303.10 475.40 302.30 477.60 301.30 479.30 C 298.80 483.80 297.10 488.20 292.90 491.20 C 290.70 492.70 288.20 493.90 285.70 494.90 C 293.10 491.20 298.60 484.20 300.60 476.30 C 300.80 475.60 301.30 473.80 302.60 471.10 C 303.30 469.40 303.60 467.40 303.30 465.40 C 303.30 464.70 302.80 463.90 302.10 463.70 C 301.40 463.50 300.90 463.20 300.10 463.00 C 299.60 463.00 299.10 462.80 298.60 462.30 C 298.10 462.10 297.90 461.30 298.10 460.60 L 302.80 460.10 Z" fill="#ffa246" fill-rule="nonzero" node-id="161" stroke="none" target-height="34.799988" target-width="19.5" target-x="285.7" target-y="460.1"></path><g node-id="264"><path d="M 287.23 467.35 L 288.29 469.54 L 288.83 471.85 L 288.85 474.34 L 288.41 476.81 L 287.51 479.29 L 286.12 481.79 L 284.38 484.07 L 282.23 486.18 L 279.63 488.12 L 276.77 489.67 L 273.96 490.74 L 271.16 491.36 L 268.30 491.57 L 265.68 491.35 L 263.25 490.72 L 261.00 489.65 L 259.12 488.19 L 257.58 486.31 L 256.52 484.12 L 255.98 481.81 L 255.96 479.32 L 256.40 476.85 L 257.30 474.37 L 258.69 471.87 L 260.43 469.59 L 262.58 467.48 L 265.19 465.54 L 268.04 463.99 L 270.85 462.92 L 273.66 462.30 L 276.51 462.09 L 279.13 462.31 L 281.57 462.94 L 283.81 464.01 L 285.69 465.47 L 287.23 467.35 Z" fill="#fda567" fill-rule="nonzero" group-id="1" node-id="165" stroke="none" target-height="29.486023" target-width="32.89514" target-x="255.95792" target-y="462.08713"></path></g><path d="M 567.70 464.30 C 577.10 471.70 566.70 489.60 560.50 494.80 C 550.60 503.20 540.40 503.50 530.50 495.80 C 525.00 491.30 524.10 484.20 526.50 477.70 C 527.70 475.00 529.70 472.70 532.20 471.50 C 534.70 470.00 537.20 468.50 539.40 467.00 C 541.90 465.50 545.10 466.30 546.60 468.70 C 546.80 468.90 546.80 469.40 547.10 469.70 L 548.60 474.20 C 549.10 475.40 550.60 476.20 552.10 475.70 C 552.30 475.70 552.60 475.50 552.80 475.20 C 556.30 472.50 559.00 469.30 561.50 465.50 C 562.20 463.50 564.50 462.80 566.20 463.50 C 567.00 463.30 567.50 463.80 567.70 464.30 Z" fill="#ffb15c" fill-rule="nonzero" node-id="168" stroke="none" target-height="40.700012" target-width="53" target-x="524.1" target-y="462.8"></path><path d="M 788.30 473.70 C 792.50 477.20 794.50 482.60 793.80 488.10 C 793.80 488.80 794.00 489.60 794.80 489.80 C 810.70 497.00 828.30 507.40 834.90 524.00 C 838.10 532.40 839.90 536.90 840.10 537.10 C 846.50 551.50 848.80 567.60 846.80 583.20 C 847.30 577.00 846.80 571.10 844.80 565.10 C 844.60 564.40 844.10 563.60 843.30 563.10 C 842.10 562.40 840.80 561.90 839.30 561.90 C 838.60 561.90 838.10 561.70 837.60 561.20 C 837.40 560.70 836.90 560.50 836.40 560.50 C 835.90 560.50 835.40 560.70 835.40 561.20 L 835.40 561.20 C 834.40 571.40 831.90 581.50 827.70 590.70 C 826.70 592.90 824.70 594.70 822.20 595.40 C 819.50 595.90 816.50 596.90 813.80 597.90 C 806.90 600.60 797.70 599.40 790.30 599.10 C 785.60 598.90 781.10 598.90 776.40 599.30 C 763.80 600.30 751.40 600.50 738.70 599.80 C 725.60 599.10 715.70 598.60 709.00 598.60 C 722.60 598.10 736.30 598.10 749.90 598.10 C 752.60 598.10 755.10 596.90 757.30 596.90 C 774.40 596.70 785.60 596.70 790.00 597.10 C 796.90 597.60 804.10 597.60 811.10 596.90 C 814.80 596.40 818.30 594.20 820.30 591.00 C 820.80 590.50 820.80 589.80 820.80 589.00 C 820.30 584.50 820.80 580.10 822.00 575.60 C 825.00 564.20 825.70 552.30 824.50 540.40 C 824.50 539.70 825.00 538.90 825.70 538.70 C 826.70 538.50 827.70 538.50 828.40 539.20 C 828.90 539.70 829.90 539.70 830.10 539.20 C 830.30 539.00 830.30 539.00 830.30 538.70 L 834.00 531.00 C 834.70 529.80 834.50 528.00 833.80 526.80 C 832.10 523.60 830.10 520.40 827.60 517.10 C 825.40 514.10 822.90 511.40 819.90 509.20 C 813.00 504.00 805.50 499.50 797.60 495.80 C 795.60 494.80 793.40 494.60 790.90 494.60 C 790.20 494.60 789.40 494.10 789.20 493.40 L 788.00 489.90 C 787.80 489.20 787.00 488.40 786.30 488.20 C 782.80 487.00 779.10 486.70 775.60 487.50 C 775.60 483.80 774.10 480.30 771.90 477.60 L 775.10 477.40 C 775.80 477.40 776.60 476.70 776.60 475.90 C 777.90 470.00 784.30 470.70 788.30 473.70 Z" fill="#ffbca9" fill-rule="nonzero" node-id="170" stroke="none" target-height="130.59998" target-width="139.79999" target-x="709" target-y="470"></path><path d="M 631.70 471.70 C 630.20 474.40 630.50 476.20 632.70 476.70 C 633.40 476.90 634.20 477.40 634.40 478.20 C 635.90 481.40 637.90 484.60 640.30 487.10 C 643.80 490.10 647.00 493.50 650.00 497.00 C 650.70 497.70 651.50 498.00 652.50 498.00 C 658.00 497.30 667.60 494.30 665.90 486.80 C 664.90 482.10 666.10 481.30 669.90 484.30 C 672.60 486.50 675.60 488.50 678.60 490.20 C 682.30 492.20 682.10 493.70 678.10 494.90 C 671.90 496.40 670.90 502.10 666.90 506.30 C 662.90 510.80 659.20 515.70 656.00 520.90 C 655.00 522.40 655.30 524.60 656.50 525.90 C 659.20 528.40 660.00 532.30 658.00 535.60 C 655.50 540.30 653.50 545.50 651.80 550.50 L 643.40 546.50 C 641.90 545.80 640.70 544.30 640.40 542.50 C 638.90 532.60 635.90 523.20 631.50 514.20 C 627.00 504.30 622.80 494.40 619.40 484.00 C 618.40 481.80 619.40 479.30 621.40 478.30 L 631.70 471.70 Z" fill="#feaf3a" fill-rule="nonzero" node-id="172" stroke="none" target-height="78.79999" target-width="63.899963" target-x="618.4" target-y="471.7"></path><path d="M 728.50 492.80 L 704.20 516.60 C 703.20 517.60 701.70 517.30 700.70 516.40 C 700.50 516.20 700.50 515.90 700.20 515.70 L 696.20 505.00 C 696.00 504.30 696.00 503.30 696.40 502.50 L 709.80 481.40 C 714.80 478.70 720.20 479.90 725.70 484.90 C 728.10 486.80 729.00 489.80 728.50 492.80 Z M 703.30 509.40 C 704.30 508.90 704.30 507.20 703.30 505.40 C 702.30 503.70 700.80 502.70 699.80 503.20 C 698.80 503.70 698.80 505.40 699.80 507.20 C 700.80 508.90 702.30 509.90 703.30 509.40 L 703.30 509.40 Z" fill="#f6f7f9" fill-rule="nonzero" node-id="174" stroke="none" target-height="38.899963" target-width="33" target-x="696" target-y="478.7"></path><path d="M 450.20 482.90 C 451.20 481.90 452.40 481.40 453.90 481.40 C 454.60 481.40 455.10 481.60 455.10 482.40 C 455.10 482.60 455.10 482.60 455.10 482.90 C 455.10 484.60 453.90 486.10 452.10 486.40 C 444.20 488.10 436.00 489.10 427.80 489.40 C 420.10 489.60 412.40 489.40 404.80 488.40 C 390.70 486.90 376.50 488.20 362.90 492.10 C 359.20 493.30 355.50 493.30 351.70 492.60 C 346.70 491.40 342.00 489.90 337.60 487.90 C 336.60 487.40 335.90 486.70 335.60 485.70 L 335.40 485.00 C 335.20 484.50 335.40 483.80 336.10 483.80 C 336.30 483.80 336.60 483.80 336.80 483.80 C 344.70 486.50 349.70 492.20 359.40 490.20 C 378.70 486.20 389.90 484.30 406.70 486.20 C 417.10 487.40 426.50 487.40 436.40 487.90 C 437.40 487.90 438.10 487.70 438.90 487.20 C 441.40 485.20 444.10 484.20 447.30 484.20 C 448.80 483.90 449.80 483.40 450.20 482.90 Z" fill="#819765" fill-rule="nonzero" node-id="176" stroke="none" target-height="11.899994" target-width="119.899994" target-x="335.2" target-y="481.4"></path><path d="M 764.00 497.50 L 763.80 497.30 L 763.80 496.30 C 763.80 495.60 764.30 495.10 765.00 495.10 C 765.00 495.10 765.00 495.10 765.20 495.10 C 769.70 495.60 773.90 497.80 776.60 501.50 C 776.80 501.70 776.80 502.20 776.60 502.70 L 776.10 503.40 C 775.90 503.90 775.10 504.10 774.60 503.90 C 774.40 503.90 774.40 503.70 774.40 503.70 C 771.40 500.70 767.90 498.70 764.00 497.50 Z" fill="#fbb2b1" fill-rule="nonzero" node-id="178" stroke="none" target-height="9" target-width="13" target-x="763.8" target-y="495.1"></path><path d="M 751.80 498.00 C 753.50 498.00 753.80 498.70 753.00 500.20 L 751.00 503.40 C 750.30 504.60 748.80 505.40 747.30 504.90 C 744.80 504.70 742.60 505.10 740.40 506.10 C 738.90 506.60 737.40 505.90 736.90 504.40 L 736.90 504.40 C 736.70 503.70 736.90 502.70 737.60 502.40 C 737.60 502.40 737.60 502.40 737.80 502.40 C 741.90 500.00 746.90 498.50 751.80 498.00 Z" fill="#f0d1cd" fill-rule="nonzero" node-id="180" stroke="none" target-height="8.600006" target-width="17.099976" target-x="736.7" target-y="498"></path><path d="M 703.11 505.26 L 703.63 506.58 L 703.77 507.72 L 703.56 508.71 L 703.02 509.29 L 702.24 509.43 L 701.29 509.06 L 700.41 508.32 L 699.59 507.17 L 699.07 505.85 L 698.93 504.71 L 699.15 503.72 L 699.69 503.14 L 700.47 503.00 L 701.42 503.37 L 702.30 504.11 L 703.11 505.26 Z" fill="#f4c5a9" fill-rule="nonzero" group-id="2" node-id="184" stroke="none" target-height="6.4222717" target-width="4.842041" target-x="698.9319" target-y="503.00385"></path><path d="M 633.90 546.60 L 633.90 551.10 C 633.90 551.80 633.20 552.60 632.40 552.80 L 631.40 553.00 C 630.90 553.00 630.40 552.80 630.40 552.30 L 630.40 552.00 L 630.90 548.50 C 630.90 547.80 630.40 547.00 629.70 547.00 C 629.50 547.00 629.00 547.00 628.70 547.20 C 625.70 549.20 623.70 551.90 620.30 553.10 L 607.90 557.80 C 604.90 558.80 601.50 558.00 597.20 555.30 C 594.00 548.60 594.00 540.90 597.40 534.50 C 597.60 533.80 598.10 533.50 598.90 533.30 L 600.90 532.80 C 601.90 532.60 602.10 532.10 601.60 531.10 C 601.40 530.60 601.10 530.40 600.60 530.10 C 599.90 529.90 599.60 529.10 599.60 528.40 C 599.60 527.20 600.60 526.20 601.60 525.70 C 603.30 524.70 604.80 523.70 606.30 522.20 C 614.00 518.50 620.40 519.20 625.40 524.70 C 628.90 528.20 631.30 532.60 631.80 537.60 C 632.10 540.40 632.60 543.60 633.90 546.60 Z" fill="#ffa490" fill-rule="nonzero" node-id="187" stroke="none" target-height="40.299988" target-width="39.900024" target-x="594" target-y="518.5"></path><path d="M 539.50 606.00 C 540.70 612.20 541.00 618.40 540.70 624.60 C 538.50 645.20 532.30 665.00 522.60 683.10 L 441.80 688.60 C 410.80 690.60 386.00 691.60 367.50 691.30 C 348.20 691.10 328.80 691.10 309.50 691.30 C 295.40 691.30 280.80 689.80 266.10 689.30 C 258.40 673.70 254.50 656.60 254.70 639.50 C 254.50 616.50 259.70 593.90 269.80 573.30 C 277.50 558.20 285.90 547.30 303.00 543.10 C 314.40 540.40 325.80 538.60 337.40 537.60 C 385.00 533.60 434.50 532.40 482.10 538.80 C 498.20 541.00 508.40 542.00 518.30 552.70 C 531.00 567.10 536.50 585.70 539.50 606.00 Z" fill="#fef2e1" fill-rule="nonzero" node-id="189" stroke="none" target-height="159.19995" target-width="286.5" target-x="254.5" target-y="532.4"></path><path d="M 767.20 558.90 C 760.80 561.40 751.30 562.40 745.10 559.40 C 743.40 558.70 742.60 556.70 743.40 554.90 C 743.60 554.70 743.60 554.40 743.90 554.20 L 755.10 541.60 C 756.80 539.60 759.80 539.10 762.00 540.10 C 769.20 543.60 775.90 548.50 781.10 554.70 C 781.80 555.70 781.80 556.90 780.90 557.90 C 780.90 557.90 780.70 558.10 780.40 558.10 C 776.90 560.10 773.00 560.30 769.20 558.80 C 768.70 558.70 767.90 558.70 767.20 558.90 Z" fill="#ffbca9" fill-rule="nonzero" node-id="191" stroke="none" target-height="23.300049" target-width="39.200012" target-x="742.6" target-y="539.1"></path><path d="M 633.90 546.60 C 635.10 548.60 634.90 551.10 633.40 552.80 C 632.90 553.30 632.70 553.80 632.40 554.30 C 632.20 554.80 632.20 555.00 631.70 555.50 C 616.60 553.30 610.10 559.50 612.40 574.30 C 614.10 584.20 619.60 589.40 628.80 589.70 C 629.50 589.70 630.30 589.50 631.00 589.00 C 634.70 585.80 637.40 581.60 638.90 577.10 C 641.40 591.50 638.40 603.10 630.00 611.80 C 626.00 615.80 620.60 617.70 616.10 621.50 C 615.40 622.00 614.60 622.20 613.60 622.20 L 605.70 620.70 C 611.40 616.50 613.90 612.00 613.10 607.30 C 611.40 598.90 601.20 597.40 594.30 599.60 C 593.60 599.80 592.80 600.30 592.60 601.10 C 588.90 607.00 588.10 614.20 590.60 620.70 C 587.60 623.70 589.10 626.40 595.10 628.40 C 606.50 632.60 619.90 626.90 629.50 618.70 C 639.20 610.50 644.90 595.70 645.60 583.00 C 645.80 579.30 647.10 579.00 649.30 581.80 C 659.00 593.90 670.40 604.40 683.30 613.00 C 677.60 627.60 669.20 641.00 658.50 652.40 C 656.00 652.60 654.80 653.40 654.30 654.40 C 653.10 657.90 651.10 660.80 648.60 663.60 C 638.90 676.20 631.00 690.10 625.10 704.70 C 621.60 702.00 616.70 701.50 612.70 703.20 C 612.00 703.40 611.20 703.70 610.50 703.70 L 604.30 703.50 C 602.60 703.50 602.10 702.80 602.60 701.00 C 606.80 690.10 609.50 678.70 611.00 667.00 C 611.20 666.80 611.00 666.30 610.80 666.00 C 610.80 666.00 610.80 666.00 610.60 666.00 L 609.90 665.80 L 609.70 665.80 C 607.00 674.20 604.20 682.40 601.50 690.60 C 600.50 693.80 599.30 696.80 597.80 699.80 C 596.60 702.00 594.60 703.80 592.30 704.80 C 564.30 715.70 535.10 722.40 505.10 725.10 C 504.90 725.10 504.40 724.90 504.40 724.60 C 504.40 724.40 504.40 724.40 504.40 724.10 C 510.60 713.90 516.30 703.50 521.30 692.90 C 521.30 692.70 521.50 692.40 521.50 692.20 L 521.50 691.50 C 521.50 691.00 521.30 690.50 520.80 690.50 L 520.60 690.50 L 519.40 690.50 L 522.90 683.10 C 532.60 665.00 538.80 644.90 541.00 624.60 C 541.20 618.40 541.00 612.20 539.80 606.00 L 540.30 603.80 C 540.30 603.10 541.00 602.60 541.80 602.60 C 546.50 602.60 551.00 602.60 555.70 601.90 C 566.10 599.90 577.30 597.20 588.70 594.00 C 592.20 593.00 595.10 590.50 596.60 587.30 C 597.10 586.10 597.10 584.80 596.10 583.80 C 591.10 578.10 588.40 570.20 591.90 563.00 C 593.10 560.00 595.10 557.30 597.40 555.10 C 601.60 557.80 605.30 558.60 608.10 557.60 L 620.50 552.90 C 623.70 551.70 626.00 549.20 628.90 547.00 C 629.60 546.50 630.40 546.80 630.90 547.20 C 631.10 547.40 631.10 547.90 631.10 548.20 L 630.60 551.70 C 630.60 552.20 630.80 552.70 631.30 552.70 L 631.50 552.70 L 632.50 552.50 C 633.20 552.30 634.00 551.50 634.00 550.80 L 633.90 546.60 Z" fill="#89a479" fill-rule="nonzero" node-id="193" stroke="none" target-height="178.59998" target-width="178.9" target-x="504.4" target-y="546.5"></path><path d="M 713.90 571.10 C 712.70 571.30 711.40 570.90 710.70 569.90 C 708.50 563.00 710.90 555.50 716.90 551.30 C 718.60 549.80 721.10 550.30 722.60 552.00 C 723.10 552.50 723.30 553.00 723.30 553.70 C 724.80 560.60 722.30 563.60 719.60 569.10 C 718.90 570.30 716.90 571.10 713.90 571.10 Z" fill="#4d1610" fill-rule="nonzero" node-id="195" stroke="none" target-height="21.5" target-width="16.299988" target-x="708.5" target-y="549.8"></path><path d="M 812.17 562.02 L 812.45 564.50 L 812.24 566.76 L 811.57 568.84 L 810.53 570.52 L 809.12 571.78 L 807.40 572.49 L 805.55 572.56 L 803.73 572.01 L 802.08 570.93 L 800.60 569.32 L 799.47 567.36 L 798.69 564.99 L 798.40 562.51 L 798.61 560.25 L 799.28 558.17 L 800.32 556.49 L 801.74 555.23 L 803.45 554.52 L 805.31 554.45 L 807.12 555.00 L 808.77 556.08 L 810.25 557.69 L 811.38 559.65 L 812.17 562.02 Z" fill="#4d1610" fill-rule="nonzero" group-id="3" node-id="199" stroke="none" target-height="18.11853" target-width="14.048401" target-x="798.4023" target-y="554.44507"></path><path d="M 213.30 554.70 C 213.50 554.50 213.80 554.20 214.30 554.20 C 215.00 554.00 215.80 554.40 215.80 555.20 L 216.50 557.70 C 216.70 558.20 217.20 558.70 217.70 558.90 C 219.40 559.40 221.20 559.60 222.70 559.90 C 224.40 560.10 226.20 560.10 227.90 559.90 C 240.50 557.90 253.20 557.90 265.80 559.40 C 268.50 559.90 270.30 562.40 270.00 565.10 L 270.00 565.10 C 269.50 567.80 269.30 570.60 269.80 573.00 C 259.60 593.60 254.40 616.10 254.70 639.20 C 254.50 656.50 258.40 673.60 266.10 689.00 L 269.60 697.20 C 267.40 697.20 265.90 697.90 265.40 699.20 C 265.20 700.40 265.60 701.70 266.40 702.70 C 270.40 707.90 273.10 711.40 274.60 713.60 C 275.60 714.80 275.60 716.60 274.80 717.80 C 274.30 718.50 273.60 718.80 272.80 718.50 C 271.80 718.30 270.60 718.50 269.60 719.20 C 269.10 719.70 268.10 719.90 267.40 719.90 C 263.70 720.10 260.00 718.90 257.20 716.40 C 256.70 715.90 256.00 715.70 255.20 715.40 C 253.70 715.40 252.20 714.40 251.50 712.90 C 247.30 703.70 244.80 702.00 244.60 707.90 C 238.70 688.10 239.60 666.80 247.60 647.90 C 249.10 644.40 250.10 640.70 250.60 637.00 C 251.10 633.30 251.30 629.60 251.30 625.80 C 251.30 625.10 251.10 624.30 250.30 623.80 C 246.80 621.10 245.30 616.40 246.80 612.20 C 250.00 610.50 250.00 608.00 246.80 605.00 C 245.60 604.00 244.30 603.30 242.80 602.80 C 241.30 602.30 240.10 601.60 238.80 600.60 C 232.40 596.10 226.40 590.70 221.00 585.00 C 219.50 583.00 218.30 581.00 217.30 578.80 C 214.80 573.60 215.60 564.70 215.10 558.70 C 215.10 557.70 214.90 557.20 214.40 557.20 C 213.90 557.20 213.20 557.40 212.40 558.20 C 212.30 557.70 212.60 556.20 213.30 554.70 Z" fill="#89a479" fill-rule="nonzero" node-id="202" stroke="none" target-height="166.09998" target-width="63.300003" target-x="212.3" target-y="554"></path><path d="M 631.70 555.50 C 638.40 563.40 640.90 570.60 638.90 576.80 C 637.40 581.50 634.70 585.50 631.00 588.70 C 630.50 589.20 629.80 589.40 628.80 589.40 C 619.40 589.20 613.90 583.90 612.40 574.00 C 610.10 559.70 616.30 553.50 631.70 555.50 Z" fill="#ffa490" fill-rule="nonzero" node-id="204" stroke="none" target-height="35.900024" target-width="30.800049" target-x="610.1" target-y="553.5"></path><path d="M 247.30 612.70 C 236.40 605.00 226.20 595.80 217.60 585.70 C 210.90 577.80 212.10 568.60 212.60 559.20 C 213.30 558.50 214.10 558.00 214.60 558.20 C 215.10 558.40 215.30 558.70 215.30 559.70 C 215.80 565.60 214.80 574.60 217.50 579.80 C 218.50 582.00 219.70 584.00 221.20 586.00 C 226.70 591.90 232.60 597.20 239.00 601.60 C 240.20 602.60 241.50 603.10 243.00 603.80 C 244.50 604.30 245.70 605.00 247.00 606.00 C 250.80 608.50 250.80 611.00 247.30 612.70 Z" fill="#706e6d" fill-rule="nonzero" node-id="206" stroke="none" target-height="54.700012" target-width="39.90001" target-x="210.9" target-y="558"></path><path d="M 846.50 583.00 L 843.50 604.10 C 843.70 602.90 843.50 601.60 843.00 600.60 C 842.50 599.60 842.00 599.90 841.50 600.80 C 840.30 605.80 838.00 610.20 835.30 614.40 C 832.10 619.10 825.60 624.80 816.70 631.30 C 811.00 635.30 805.80 638.70 800.60 642.20 C 800.60 642.20 800.60 642.20 800.60 642.40 L 800.60 642.40 L 800.80 642.90 C 801.00 643.10 801.30 643.40 801.50 643.10 L 801.50 643.10 C 812.20 637.90 822.10 631.50 831.00 623.80 C 834.20 620.80 835.70 621.60 835.50 626.00 C 835.30 630.70 835.50 635.20 836.70 639.60 C 837.20 641.60 837.40 643.30 837.40 645.30 C 837.40 647.30 837.60 649.30 838.10 651.00 C 842.30 668.10 842.30 685.90 838.60 703.00 C 838.10 705.50 836.90 707.70 835.10 709.40 C 832.60 711.90 829.60 713.90 826.40 715.10 C 825.40 715.30 824.20 716.10 823.40 716.80 C 822.70 717.50 822.70 717.80 823.90 717.80 C 825.90 717.80 827.90 717.60 829.80 717.10 C 833.00 716.40 836.50 716.10 840.00 716.40 C 840.70 716.40 841.50 716.60 842.20 716.90 C 843.20 717.60 844.70 717.60 845.90 717.40 C 835.50 717.20 825.10 718.60 815.20 721.90 C 814.20 722.10 813.20 722.60 812.50 723.40 C 811.80 724.10 810.80 724.60 810.00 725.10 C 809.20 725.60 808.80 726.10 808.50 726.80 C 808.00 727.80 807.00 728.30 806.00 728.00 C 807.70 724.30 809.20 720.30 810.50 716.40 C 810.50 716.20 810.70 715.90 811.00 715.70 C 811.20 715.50 811.50 715.20 811.70 715.00 L 821.10 694.40 C 821.30 694.20 821.10 693.70 820.90 693.70 L 820.90 693.70 L 820.40 693.50 C 820.40 693.50 820.20 693.30 819.90 693.50 L 819.90 693.50 C 815.90 699.70 812.70 707.10 809.00 712.60 C 805.30 718.10 802.60 722.50 796.60 726.00 C 793.40 728.00 790.40 730.00 787.70 731.90 C 786.20 732.90 784.20 732.40 783.20 730.90 C 783.00 730.40 782.70 730.20 782.70 729.70 C 782.00 723.50 780.50 717.60 779.00 711.60 C 777.30 705.20 778.30 697.70 778.50 690.80 C 778.50 690.10 778.00 689.30 777.30 689.30 C 777.10 689.30 776.80 689.30 776.80 689.30 L 775.30 689.80 C 774.60 690.00 773.80 690.00 773.30 689.80 C 771.60 688.80 770.80 686.80 771.60 685.10 C 771.80 683.60 772.30 682.10 772.60 680.60 C 772.80 680.10 772.60 679.40 772.10 679.10 C 771.90 678.90 771.60 678.90 771.40 678.90 C 770.70 678.90 770.40 679.10 770.40 679.90 C 770.60 682.10 770.40 684.40 769.40 686.30 C 769.20 687.00 769.20 687.80 769.40 688.50 C 770.90 691.20 773.40 692.70 774.40 695.40 C 776.10 700.40 775.60 705.80 776.40 710.00 C 776.90 713.00 777.60 715.90 778.10 718.70 C 778.60 721.70 778.80 724.60 778.80 727.40 C 779.00 731.60 779.50 735.60 780.50 739.50 C 778.80 738.50 777.00 737.80 775.00 737.50 C 771.80 737.00 768.10 739.20 764.30 739.70 C 762.60 739.90 760.80 740.40 759.10 740.90 C 754.90 742.90 750.40 744.60 746.00 746.10 C 741.80 747.10 737.30 747.60 732.90 747.60 L 731.40 744.10 C 730.90 739.40 730.70 734.70 730.40 730.00 C 730.40 726.50 730.90 723.30 731.60 719.80 C 732.30 716.30 732.80 712.90 732.80 709.40 C 732.80 707.90 732.60 707.90 731.80 709.20 C 729.60 712.70 729.80 716.60 728.10 720.60 C 727.40 722.30 726.90 723.80 726.10 725.60 C 725.90 726.60 724.90 727.30 723.90 727.10 L 723.70 727.10 C 718.20 726.40 712.80 725.40 707.30 724.10 C 702.10 722.90 697.10 721.10 692.40 718.40 C 686.90 715.40 682.00 712.20 677.00 708.50 C 675.00 707.00 674.30 707.50 674.80 709.70 C 675.30 712.40 675.00 714.20 674.10 714.90 C 672.60 715.90 672.10 717.90 673.10 719.40 C 673.10 719.40 673.10 719.60 673.30 719.60 C 675.30 722.30 676.80 725.30 677.80 728.80 C 678.00 729.50 677.80 730.30 677.60 731.00 L 675.40 734.70 L 670.40 736.70 C 670.90 736.00 671.60 735.20 672.40 735.00 C 673.10 734.80 673.60 734.30 673.60 733.50 C 673.80 731.30 673.40 729.80 671.90 729.30 C 671.40 729.10 670.90 728.60 671.20 728.10 C 671.40 726.90 671.40 725.60 671.20 724.40 C 669.20 714.00 665.70 704.10 661.00 694.70 C 660.00 692.20 657.80 690.20 655.10 689.50 C 652.60 688.80 650.40 687.50 648.70 686.00 C 645.70 683.50 643.20 680.50 641.00 677.30 L 649.20 662.40 C 651.70 659.70 653.70 656.70 654.90 653.20 C 655.10 652.20 656.60 651.50 659.10 651.20 C 661.10 653.40 663.30 654.90 666.00 656.20 C 667.00 656.70 668.00 656.20 668.50 655.50 L 668.50 655.30 C 670.50 648.40 671.50 641.40 675.90 635.50 C 680.90 628.60 685.60 621.60 689.80 614.20 C 690.30 613.50 690.80 613.00 691.50 612.70 L 693.20 612.00 C 693.90 611.80 694.40 610.80 694.20 610.00 C 693.50 606.30 691.20 603.10 688.30 601.10 C 688.30 596.10 686.30 591.40 682.80 587.70 C 684.30 586.50 685.30 584.70 685.30 582.70 C 685.30 581.70 685.80 581.50 686.80 582.00 C 687.80 582.20 688.30 583.50 688.00 584.20 C 687.50 586.70 687.50 589.40 687.80 591.90 C 687.80 592.60 688.30 593.40 689.30 593.60 L 699.50 596.60 L 710.40 598.10 C 717.10 598.10 727.00 598.60 740.10 599.30 C 752.70 600.00 765.40 599.80 777.80 598.80 C 782.50 598.60 787.00 598.30 791.70 598.60 C 799.10 598.80 808.30 600.10 815.20 597.40 C 817.90 596.40 820.70 595.40 823.60 594.90 C 826.10 594.40 828.10 592.70 829.10 590.20 C 833.30 580.80 835.80 570.90 836.80 560.70 C 836.80 560.20 837.30 559.70 837.80 560.00 L 837.80 560.00 C 838.30 560.00 838.80 560.20 839.00 560.70 C 839.50 561.20 840.00 561.40 840.70 561.40 C 842.20 561.40 843.40 561.90 844.70 562.60 C 845.40 563.10 845.90 563.60 846.20 564.60 C 846.50 570.80 847.00 577.00 846.50 583.00 Z M 795.70 664.30 C 795.50 663.60 795.50 662.60 795.20 661.80 C 795.00 660.80 794.70 660.80 794.50 661.80 C 793.50 666.30 794.30 669.20 797.00 671.50 C 800.50 674.00 804.40 676.00 808.60 677.20 C 819.80 680.40 826.40 666.50 828.70 657.90 C 829.90 652.70 829.40 652.40 827.20 657.40 C 824.20 663.80 819.00 677.20 809.60 675.00 C 803.10 673.70 796.70 670.20 795.70 664.30 L 795.70 664.30 Z" fill="#fe6048" fill-rule="nonzero" node-id="208" stroke="none" target-height="187.89996" target-width="206" target-x="641" target-y="559.7"></path><path d="M 798.20 579.50 C 797.70 583.00 796.50 586.20 794.50 588.90 C 794.00 589.60 793.00 590.10 792.00 589.90 C 790.30 589.70 788.80 588.90 787.50 587.90 C 786.80 587.40 786.00 587.20 785.30 587.20 L 731.30 586.70 C 730.10 586.70 729.10 585.70 729.10 584.50 L 729.10 584.50 L 729.60 573.10 C 729.60 572.10 730.10 571.10 730.80 570.60 C 738.00 565.10 742.70 567.90 750.10 568.10 C 750.80 568.10 751.80 567.90 752.30 567.40 C 754.50 565.70 757.80 565.70 760.20 566.90 C 760.90 567.10 761.70 567.40 762.40 567.10 C 769.10 566.10 776.00 566.10 782.70 567.60 C 784.70 568.10 786.20 569.80 786.20 571.80 L 786.70 579.20 C 786.70 580.20 787.70 580.90 788.70 580.90 C 789.20 580.90 789.70 580.70 790.20 580.20 L 794.90 574.00 C 795.60 573.00 797.10 572.80 798.10 573.50 C 798.30 573.70 798.60 574.00 798.80 574.20 C 799.50 575.20 799.30 576.70 798.60 577.70 C 798.40 578.50 798.40 579.00 798.20 579.50 Z" fill="#ffa490" fill-rule="nonzero" node-id="210" stroke="none" target-height="25" target-width="70.400024" target-x="729.1" target-y="565.1"></path><path d="M 605.60 620.40 C 603.10 621.90 600.60 623.10 597.90 623.90 C 594.20 624.90 592.40 623.20 590.20 620.40 C 587.70 614.00 588.50 606.50 592.20 600.80 C 592.70 600.10 593.20 599.60 593.90 599.30 C 601.10 597.10 611.20 598.60 612.70 607.00 C 613.80 611.70 611.60 616.20 605.60 620.40 Z" fill="#f4c5a9" fill-rule="nonzero" node-id="212" stroke="none" target-height="27.800049" target-width="26.099976" target-x="587.7" target-y="597.1"></path><path d="M 843.30 604.30 C 841.60 613.20 837.40 620.40 838.60 630.30 C 841.10 648.40 843.80 666.70 846.80 684.80 C 848.00 695.00 847.50 705.10 845.60 715.00 C 845.80 715.00 845.80 715.70 845.40 717.70 C 844.20 717.90 842.90 717.90 841.70 717.20 C 841.00 716.70 840.20 716.70 839.50 716.70 C 836.00 716.50 832.80 716.70 829.30 717.40 C 827.30 717.90 825.30 718.10 823.40 718.10 C 822.40 718.10 822.20 717.60 822.90 717.10 C 823.90 716.40 824.90 715.90 825.90 715.40 C 829.40 714.20 832.30 712.40 834.60 709.70 C 836.30 708.00 837.60 705.70 838.10 703.30 C 842.10 686.20 841.80 668.40 837.60 651.30 C 837.10 649.30 837.10 647.30 836.90 645.60 C 836.90 643.60 836.70 641.60 836.20 639.90 C 835.00 635.40 834.70 630.70 835.00 626.30 C 835.50 621.80 834.00 621.10 830.50 624.10 C 821.60 631.80 811.70 638.50 801.00 643.70 C 800.80 643.90 800.30 643.90 800.30 643.50 L 800.30 643.50 L 800.10 643.00 C 800.10 643.00 800.10 643.00 800.10 642.80 L 800.10 642.80 C 805.30 639.60 810.50 635.90 816.20 631.90 C 825.40 625.50 831.60 620.00 834.80 615.00 C 837.50 610.80 839.80 606.10 841.00 601.40 C 841.20 600.40 841.70 600.20 842.50 601.20 C 843.30 601.80 843.50 603.10 843.30 604.30 Z" fill="#ea372a" fill-rule="nonzero" node-id="214" stroke="none" target-height="117.89996" target-width="47.900024" target-x="800.1" target-y="600.2"></path><path d="M 687.20 601.80 C 690.40 603.80 692.70 607.00 693.40 610.70 C 693.60 611.40 693.20 612.40 692.40 612.70 L 690.70 613.40 C 690.00 613.60 689.50 614.10 689.00 614.90 C 684.80 622.10 680.10 629.30 675.10 636.20 C 670.90 642.10 669.60 649.10 667.70 656.00 C 667.50 657.00 666.50 657.50 665.50 657.20 L 665.30 657.20 C 662.60 656.00 660.30 654.50 658.40 652.20 C 669.10 640.80 677.50 627.40 683.20 612.80 L 687.20 601.80 Z" fill="#ffbca9" fill-rule="nonzero" node-id="216" stroke="none" target-height="55.700012" target-width="35.19995" target-x="658.4" target-y="601.8"></path><path d="M 648.50 663.80 L 640.30 678.70 C 630.10 695.80 624.20 715.40 623.40 735.20 C 623.40 739.20 625.40 745.90 629.60 755.30 C 631.60 760.00 635.10 764.00 639.50 766.50 C 644.70 769.70 650.90 769.00 656.80 769.50 C 657.30 769.50 658.00 769.70 658.30 770.50 L 658.50 771.20 C 659.00 771.90 658.70 772.40 657.80 772.70 C 656.80 772.90 655.80 773.40 655.10 774.20 L 643.00 773.50 L 635.80 768.50 C 632.60 765.30 629.90 761.60 627.10 757.80 C 625.60 755.60 625.60 752.80 624.10 750.40 C 623.90 749.70 623.10 749.40 622.40 749.70 L 622.40 749.70 C 600.60 757.90 587.50 764.10 567.40 761.30 C 566.70 761.10 565.70 761.50 565.20 762.30 L 558.00 770.50 C 557.50 771.20 556.80 771.50 555.80 771.70 L 541.90 773.40 L 539.70 772.40 C 539.00 772.20 538.20 771.70 537.70 770.90 C 534.50 766.70 529.50 763.70 524.30 763.20 C 527.50 761.50 531.20 761.70 534.20 763.90 C 541.60 768.10 548.60 768.90 555.00 766.10 C 555.70 765.90 556.50 765.10 557.00 764.40 C 561.70 757.70 567.70 752.30 572.40 745.60 C 581.30 733.50 589.00 720.30 595.40 706.70 C 595.90 705.70 597.10 705.20 598.10 705.70 C 598.30 705.70 598.30 705.90 598.60 705.90 C 598.80 705.90 598.60 706.60 598.40 707.90 C 596.90 712.60 594.70 717.10 592.20 721.50 C 585.50 732.40 578.80 743.10 571.90 754.00 C 571.40 754.70 571.70 755.70 572.40 756.20 C 572.40 756.20 572.60 756.20 572.60 756.40 C 579.00 758.60 586.00 758.60 592.40 756.60 C 601.60 753.90 610.70 750.40 619.70 746.70 C 621.70 746.00 622.70 743.50 621.70 741.50 L 621.70 741.50 C 616.70 729.90 620.70 716.20 624.70 704.80 C 630.90 690.00 638.80 676.20 648.50 663.80 Z" fill="#515744" fill-rule="nonzero" node-id="218" stroke="none" target-height="110.400024" target-width="134.70001" target-x="524.3" target-y="663.8"></path><path d="M 625.00 704.70 C 621.00 716.10 617.10 729.70 622.00 741.40 C 622.70 743.40 622.00 745.60 620.00 746.60 L 620.00 746.60 C 611.10 750.30 601.90 753.80 592.70 756.50 C 586.30 758.50 579.30 758.20 572.90 756.30 C 571.90 756.10 571.70 755.10 571.90 754.10 C 571.90 754.10 571.90 753.90 572.10 753.90 C 579.00 743.20 585.70 732.30 592.40 721.40 C 594.90 717.20 597.10 712.50 598.60 707.80 C 599.10 706.60 599.10 706.10 598.80 705.80 C 597.80 705.10 596.60 705.30 595.80 706.00 C 595.80 706.00 595.60 706.20 595.60 706.50 C 589.20 720.10 581.50 733.30 572.60 745.40 C 567.60 752.10 561.70 757.50 557.20 764.20 C 556.70 764.90 556.00 765.40 555.20 765.90 C 548.50 768.60 541.60 767.90 534.40 763.70 C 531.40 761.70 527.70 761.20 524.50 763.00 L 517.30 764.00 L 518.00 763.00 C 518.50 762.50 518.20 762.30 517.50 762.30 C 514.00 762.10 510.60 763.00 507.60 765.00 C 501.20 770.00 489.50 768.50 482.80 765.70 C 479.80 764.50 477.10 761.20 474.10 760.20 C 470.10 759.00 470.10 757.50 473.90 755.50 C 482.60 751.00 489.80 744.30 495.00 736.20 C 495.50 735.50 495.20 734.70 494.50 734.20 C 494.30 734.20 494.30 734.00 494.00 734.00 L 492.80 733.80 C 503.00 720.40 511.60 706.00 518.80 690.70 L 520.00 690.70 C 520.50 690.70 521.00 690.90 521.00 691.40 L 521.00 691.60 L 521.00 692.30 C 521.00 692.50 521.00 692.80 520.80 693.00 C 515.60 703.70 509.90 714.10 503.70 724.20 C 503.50 724.40 503.50 724.90 503.90 725.20 C 504.10 725.20 504.10 725.40 504.40 725.20 C 534.40 722.50 563.60 715.50 591.60 704.90 C 594.10 703.90 596.10 702.20 597.10 699.90 C 598.60 696.90 599.80 694.00 600.80 690.70 C 603.50 682.50 606.30 674.10 609.00 665.90 C 613.00 653.50 609.00 665.70 609.20 665.90 L 609.90 666.10 C 610.10 666.10 610.60 666.30 610.40 666.80 C 610.40 666.80 610.40 666.80 610.40 667.00 C 608.90 678.60 605.90 690.00 602.00 701.00 C 601.50 702.70 602.00 703.50 603.70 703.50 L 609.90 703.70 C 610.60 703.70 611.40 703.50 612.10 703.20 C 616.80 701.70 621.50 702.20 625.00 704.70 Z" fill="#6c906a" fill-rule="nonzero" node-id="220" stroke="none" target-height="116.5" target-width="154.9" target-x="470.1" target-y="653.5"></path><path d="M 640.60 678.40 C 642.80 681.60 645.30 684.60 648.30 687.10 C 650.30 688.80 652.30 689.80 654.70 690.60 C 657.40 691.30 659.40 693.30 660.60 695.80 C 665.30 705.20 668.80 715.10 670.80 725.50 C 671.00 726.70 671.00 728.00 670.80 729.20 C 670.60 729.70 671.00 730.40 671.50 730.40 C 672.70 730.90 673.50 732.40 673.20 734.60 C 673.20 735.30 672.70 735.80 672.00 736.10 C 671.00 736.30 670.30 737.10 670.00 737.80 L 660.30 740.50 C 659.60 740.70 658.80 741.00 658.10 741.70 L 654.90 744.20 C 654.20 744.70 654.40 744.90 655.10 744.90 C 656.80 744.90 658.30 744.20 659.60 743.20 C 660.10 742.70 660.80 742.20 661.60 742.00 L 672.80 738.80 C 667.80 741.00 662.40 743.30 657.20 745.00 C 656.00 745.50 654.70 746.00 653.50 746.70 C 650.50 748.20 646.10 747.70 643.60 748.20 C 640.40 748.90 637.20 749.40 633.90 749.70 C 633.20 749.70 632.40 750.20 632.20 750.90 C 631.70 752.10 631.00 753.40 630.00 754.40 C 625.80 745.00 623.80 738.30 623.80 734.30 C 624.50 714.80 630.20 695.50 640.60 678.40 Z" fill="#ce9b79" fill-rule="nonzero" node-id="222" stroke="none" target-height="76" target-width="49.700012" target-x="623.8" target-y="678.4"></path><path d="M 522.60 683.10 L 519.10 690.50 C 511.90 705.60 503.20 720.00 493.10 733.60 C 486.70 743.50 477.20 750.90 466.10 754.40 C 463.60 755.10 463.10 756.60 464.40 758.60 C 458.70 759.60 452.80 760.30 446.80 760.60 C 422.80 761.10 399.00 761.30 374.90 761.80 C 368.50 762.00 362.00 761.30 355.60 760.10 C 333.00 751.20 316.90 743.70 306.80 737.50 C 292.90 728.80 280.50 715.40 269.60 697.10 L 266.10 688.90 C 280.70 689.40 295.30 691.10 309.50 690.90 C 328.80 690.90 348.20 690.90 367.50 690.90 C 386.10 691.10 410.90 690.20 441.80 688.20 L 522.60 683.10 Z" fill="#ead3be" fill-rule="nonzero" node-id="224" stroke="none" target-height="78.900024" target-width="256.49997" target-x="266.1" target-y="683.1"></path><path d="M 269.80 697.50 C 280.50 715.80 292.80 729.20 307.00 737.90 C 317.20 744.10 333.30 751.80 355.80 760.50 L 347.90 771.20 C 347.40 771.90 346.70 772.20 345.90 772.20 L 323.60 772.90 L 309.00 764.00 C 308.30 763.50 307.50 763.50 306.80 763.50 C 303.10 763.70 299.90 766.50 298.90 770.20 C 298.70 770.90 298.20 771.40 297.40 771.70 L 293.40 772.90 C 288.40 772.20 283.20 772.40 278.50 774.10 C 277.00 772.60 276.00 770.90 275.30 768.90 C 260.90 747.80 250.80 732.20 244.80 708.40 C 245.00 702.50 247.30 704.20 251.70 713.40 C 252.40 714.90 253.70 715.90 255.40 715.90 C 256.10 715.90 256.90 716.40 257.40 716.90 C 260.10 719.40 263.80 720.90 267.60 720.40 C 268.30 720.40 269.10 720.20 269.80 719.70 C 270.80 719.00 271.80 718.70 273.00 719.00 C 273.70 719.20 274.50 718.80 275.00 718.30 C 276.00 717.10 275.70 715.30 274.80 714.10 C 273.60 711.90 270.80 708.40 266.60 703.20 C 265.60 702.20 265.40 701.00 265.60 699.70 C 265.90 698.50 267.40 697.70 269.80 697.50 Z" fill="#56795c" fill-rule="nonzero" node-id="226" stroke="none" target-height="76.599976" target-width="110.999985" target-x="244.8" target-y="697.5"></path><path d="M 730.50 745.60 L 729.80 744.60 C 729.60 744.10 728.80 743.90 728.10 744.10 C 727.60 744.30 727.10 745.10 727.40 745.60 C 728.10 748.30 728.60 750.80 729.40 753.00 C 729.60 754.50 729.90 756.20 729.90 757.70 C 729.90 759.40 730.90 761.20 732.40 762.20 L 719.80 764.90 C 720.00 764.40 720.30 764.20 720.30 763.70 C 720.30 763.00 719.80 762.50 719.10 762.50 L 718.90 762.50 C 708.50 765.20 697.80 766.70 686.90 767.00 C 686.20 767.00 685.40 767.50 685.40 768.20 C 685.40 768.40 685.40 768.40 685.40 768.70 C 685.60 770.70 686.90 772.70 688.60 773.40 L 655.40 773.60 C 656.10 772.90 657.10 772.40 658.10 772.10 C 659.10 771.90 659.30 771.40 658.80 770.60 L 658.60 769.90 C 658.40 769.40 657.90 769.20 657.10 768.90 C 650.90 768.70 645.00 769.10 639.80 765.90 C 635.30 763.40 631.90 759.50 629.90 754.70 C 630.90 753.70 631.60 752.50 632.10 751.20 C 632.30 750.50 633.10 750.00 633.80 750.00 C 637.00 749.80 640.20 749.30 643.50 748.50 C 645.70 748.00 650.20 748.50 653.40 747.00 C 654.60 746.30 655.90 745.80 657.10 745.30 C 662.60 743.60 667.80 741.30 672.70 739.10 C 675.70 736.60 676.40 735.60 674.90 736.10 L 677.10 732.40 C 677.60 731.70 677.60 730.90 677.30 730.20 C 676.30 727.00 674.80 723.80 672.80 721.00 C 671.80 719.50 672.10 717.50 673.50 716.50 C 673.50 716.50 673.70 716.50 673.70 716.30 C 674.70 715.80 674.90 714.10 674.40 711.10 C 673.90 708.90 674.60 708.40 676.60 709.90 C 681.60 713.60 686.50 716.80 692.00 719.80 C 696.70 722.30 701.70 724.30 706.90 725.50 C 712.40 726.70 717.80 727.70 723.30 728.50 C 724.30 728.70 725.50 728.30 725.80 727.30 L 725.80 727.00 C 726.30 725.30 727.00 723.80 727.80 722.00 C 729.50 718.30 729.30 714.10 731.50 710.60 C 732.20 709.40 732.70 709.40 732.50 710.80 C 732.50 714.30 732.00 717.70 731.30 721.20 C 730.60 724.40 730.10 727.90 730.10 731.40 C 729.80 736.10 730.00 740.80 730.50 745.60 Z" fill="#b56967" fill-rule="nonzero" node-id="228" stroke="none" target-height="65.19995" target-width="102.79999" target-x="629.9" target-y="708.4"></path><path d="M 845.80 715.10 C 846.00 716.10 846.30 716.80 847.00 717.60 C 848.00 718.30 849.20 718.10 850.20 717.60 C 857.10 718.30 863.30 722.60 867.10 728.50 C 872.10 737.20 878.30 745.40 885.40 752.50 L 893.30 766.90 C 893.50 767.40 894.00 767.40 894.30 767.40 C 894.50 767.40 894.50 767.20 894.80 766.90 C 898.30 758.70 904.20 756.70 912.60 761.40 C 917.60 763.90 922.30 767.10 926.20 771.10 C 928.70 773.60 928.20 774.60 924.70 774.60 C 905.60 773.90 886.30 775.80 867.00 775.10 C 852.40 774.60 837.30 775.30 823.10 774.90 C 813.90 774.40 804.80 774.70 795.80 773.40 C 792.60 773.20 789.60 773.40 786.40 774.10 C 783.90 774.60 781.20 774.30 779.00 773.60 C 776.50 773.10 774.00 773.10 771.80 773.60 L 781.00 772.40 C 783.20 771.90 785.00 770.20 785.20 767.90 C 785.20 765.90 786.20 763.90 787.70 762.70 C 788.20 762.20 788.70 761.50 788.90 760.70 C 789.90 758.00 790.10 755.20 789.90 752.30 C 789.90 751.60 789.90 750.80 790.40 750.10 C 794.10 742.40 799.30 735.20 805.30 729.00 C 806.30 729.00 807.30 728.50 807.80 727.80 C 808.00 727.10 808.80 726.60 809.30 726.10 C 810.00 725.60 811.00 724.90 811.80 724.40 C 812.50 723.70 813.50 723.20 814.50 722.90 C 824.40 719.90 834.80 718.40 845.20 718.40 C 846.00 715.80 846.30 715.10 845.80 715.10 Z" fill="#958a9c" fill-rule="nonzero" node-id="230" stroke="none" target-height="60.700012" target-width="156.90002" target-x="771.8" target-y="715.1"></path><path d="M 885.40 752.20 C 878.20 745.00 872.00 737.10 867.10 728.20 C 863.40 722.00 857.20 718.00 850.20 717.30 C 866.80 715.10 873.00 728.00 880.90 740.60 C 883.40 744.10 884.90 748.30 885.40 752.20 Z" fill="#ead3be" fill-rule="nonzero" node-id="232" stroke="none" target-height="37.100037" target-width="35.200012" target-x="850.2" target-y="715.1"></path><path d="M 150.40 722.50 C 146.40 722.50 142.50 723.20 138.80 724.50 L 116.20 731.40 C 119.20 725.50 125.60 721.70 132.30 722.20 C 133.00 722.20 134.00 722.00 134.50 721.70 C 140.00 718.50 144.70 721.30 150.40 722.50 Z" fill="#f0d1cd" fill-rule="nonzero" node-id="234" stroke="none" target-height="12.900024" target-width="34.199997" target-x="116.2" target-y="718.5"></path><path d="M 150.40 722.50 C 167.50 723.70 181.10 729.70 191.80 740.30 C 200.50 749.50 208.40 759.40 215.30 769.80 C 215.80 771.00 215.50 772.30 215.30 773.30 L 171.90 773.10 C 166.90 768.60 163.20 763.40 160.30 757.50 C 157.10 749.30 153.60 740.90 149.90 732.70 C 147.40 726.80 143.50 724.00 138.50 724.80 C 142.50 723.30 146.40 722.50 150.40 722.50 Z" fill="#baa4ab" fill-rule="nonzero" node-id="236" stroke="none" target-height="50.799988" target-width="77.3" target-x="138.5" target-y="722.5"></path><path d="M 171.70 773.10 L 98.60 773.60 C 97.10 773.60 96.10 772.60 95.90 771.40 C 95.90 770.90 95.90 770.40 96.10 769.90 L 115.70 731.50 L 138.30 724.60 C 143.30 723.90 147.20 726.60 149.70 732.50 C 153.20 740.70 156.60 749.10 160.10 757.30 C 163.00 763.40 167.00 768.60 171.70 773.10 Z" fill="#958a9c" fill-rule="nonzero" node-id="238" stroke="none" target-height="49.69995" target-width="75.799995" target-x="95.9" target-y="723.9"></path><path d="M 493.10 733.90 L 494.30 734.10 C 495.00 734.30 495.50 735.10 495.30 735.80 C 495.30 736.00 495.30 736.00 495.10 736.30 C 489.90 744.50 482.50 751.20 474.00 755.60 C 470.30 757.60 470.50 759.10 474.20 760.30 C 477.20 761.30 479.90 764.80 482.90 765.80 C 489.80 768.50 501.20 770.00 507.70 765.10 C 510.70 763.10 513.90 762.10 517.60 762.40 C 518.30 762.40 518.30 762.60 518.10 763.10 L 517.40 764.10 C 512.70 764.60 508.50 767.60 506.00 771.80 C 505.50 772.50 505.00 773.00 504.30 773.30 C 502.80 773.80 501.10 773.80 499.60 773.80 C 492.70 774.50 485.70 773.80 479.00 772.10 C 478.80 770.90 478.00 769.90 476.80 769.10 L 464.20 758.90 C 462.70 756.90 463.50 755.40 465.90 754.70 C 477.00 751.00 486.70 743.80 493.10 733.90 Z" fill="#515744" fill-rule="nonzero" node-id="240" stroke="none" target-height="40.599976" target-width="55.599976" target-x="462.7" target-y="733.9"></path><path d="M 674.80 736.10 C 676.30 735.60 675.80 736.60 672.60 739.10 L 661.40 742.30 C 660.70 742.50 659.90 742.80 659.40 743.50 C 658.20 744.50 656.70 745.20 654.90 745.50 C 654.20 745.50 653.90 745.30 654.70 744.80 L 657.90 742.30 C 658.60 741.80 659.40 741.30 660.10 741.10 L 669.80 738.40 L 674.80 736.10 Z" fill="#ce6e83" fill-rule="nonzero" node-id="242" stroke="none" target-height="9.900024" target-width="22.399963" target-x="653.9" target-y="735.6"></path><path d="M 779.60 740.40 C 780.10 745.10 780.30 749.80 780.30 754.30 C 780.80 759.30 777.60 764.00 772.40 765.00 C 764.50 767.20 755.30 770.90 746.90 770.20 C 746.20 770.20 745.20 769.70 744.70 769.20 C 743.00 768.20 741.50 766.70 740.00 765.20 C 736.50 760.20 733.80 754.80 731.80 748.80 C 736.30 748.80 740.70 748.30 744.90 747.30 C 749.40 745.80 753.80 744.10 758.00 742.10 C 759.70 741.40 761.20 740.90 763.20 740.90 C 766.90 740.40 770.60 738.20 773.90 738.70 C 776.10 738.60 778.10 739.40 779.60 740.40 Z" fill="#469da7" fill-rule="nonzero" node-id="244" stroke="none" target-height="32.700012" target-width="49" target-x="731.8" target-y="738.2"></path><path d="M 719.90 765.10 C 714.20 768.60 708.00 771.00 701.60 772.00 L 688.70 773.20 C 687.00 772.20 685.70 770.50 685.50 768.50 C 685.50 767.80 686.00 767.00 686.50 767.00 C 686.50 767.00 686.70 767.00 687.00 767.00 C 697.90 767.00 708.60 765.50 719.00 762.50 C 719.70 762.30 720.20 762.70 720.50 763.20 L 720.50 763.40 C 720.40 764.40 720.10 764.60 719.90 765.10 Z" fill="#7d434d" fill-rule="nonzero" node-id="246" stroke="none" target-height="10.900024" target-width="35" target-x="685.5" target-y="762.3"></path><path d="M 732.50 762.40 L 740.90 771.80 L 720.30 774.00 C 713.90 774.70 707.90 773.00 701.50 772.00 C 707.90 771.00 714.10 768.50 719.80 765.10 L 732.50 762.40 Z" fill="#feebe5" fill-rule="nonzero" node-id="248" stroke="none" target-height="12.299988" target-width="39.400024" target-x="701.5" target-y="762.4"></path><path d="M 636.10 768.10 L 643.30 773.10 C 637.60 772.90 628.90 773.10 617.00 773.60 C 606.80 774.10 588.50 773.80 562.20 773.10 C 561.70 773.10 561.20 773.10 561.00 772.60 C 560.50 772.10 560.50 771.40 561.00 770.90 C 561.20 770.90 561.20 770.70 561.50 770.70 C 565.70 769.70 569.90 769.50 574.10 769.70 C 587.70 769.90 602.10 769.90 617.50 769.70 C 624.00 769.60 630.20 769.10 636.10 768.10 Z" fill="#f0d1cd" fill-rule="nonzero" node-id="250" stroke="none" target-height="6" target-width="82.79999" target-x="560.5" target-y="768.1"></path><path d="M 275.50 769.10 C 276.00 771.10 277.20 772.80 278.70 774.30 L 215.30 773.60 C 215.80 772.40 215.80 771.10 215.30 770.10 L 271.10 770.10 C 271.80 770.10 272.60 770.30 273.30 770.60 C 273.50 770.80 273.80 770.80 274.30 771.10 C 274.50 771.10 274.80 771.10 275.00 771.10 C 275.30 770.80 275.50 770.10 275.50 769.10 Z" fill="#f0d1cd" fill-rule="nonzero" node-id="252" stroke="none" target-height="5.200012" target-width="63.40001" target-x="215.3" target-y="769.1"></path><path d="M 476.80 769.10 C 477.80 769.80 478.80 770.80 479.00 772.10 C 474.30 773.60 469.60 772.80 465.60 772.80 C 431.90 773.00 398.20 773.30 364.20 773.50 C 360.00 773.50 356.00 773.50 352.10 773.50 C 351.60 773.50 351.10 773.30 351.10 772.50 C 351.10 772.50 351.10 772.50 351.10 772.30 L 351.10 771.30 C 351.10 770.60 351.60 770.10 352.10 770.10 C 358.00 769.10 363.70 770.10 369.70 770.10 C 403.20 770.10 436.60 770.10 470.10 769.90 C 471.80 769.90 473.60 770.40 475.10 770.90 C 475.60 771.10 476.10 770.90 476.30 770.40 L 476.30 770.20 L 476.80 769.10 Z" fill="#f0d1cd" fill-rule="nonzero" node-id="254" stroke="none" target-height="4.5" target-width="127.899994" target-x="351.1" target-y="769.1"></path><path d="M 805.60 728.50 C 799.70 734.70 794.40 741.60 790.70 749.60 C 790.50 750.30 790.20 751.10 790.20 751.80 C 790.40 754.50 790.00 757.50 789.20 760.20 C 789.00 760.90 788.50 761.70 788.00 762.20 C 786.50 763.40 785.50 765.40 785.50 767.40 C 785.30 769.60 783.50 771.40 781.30 771.90 L 772.10 773.10 C 764.20 773.60 756.20 774.30 748.60 775.10 C 745.90 774.90 743.10 773.60 740.90 771.60 L 732.50 762.20 C 731.00 761.20 730.00 759.50 730.00 757.70 C 730.00 756.20 729.80 754.50 729.50 753.00 C 728.80 750.80 728.30 748.00 727.50 745.60 C 727.30 744.90 727.70 744.40 728.20 744.10 C 728.70 743.90 729.40 744.10 729.90 744.60 L 730.60 745.60 L 732.10 749.10 C 733.80 755.00 736.60 760.50 740.30 765.50 C 741.50 767.00 743.30 768.50 745.00 769.50 C 745.70 770.00 746.50 770.50 747.20 770.50 C 755.60 771.20 764.50 767.50 772.70 765.30 C 777.70 764.30 781.10 759.60 780.60 754.60 C 780.60 750.10 780.10 745.70 779.90 740.70 C 778.90 736.70 778.20 732.80 778.20 728.60 C 778.20 725.60 778.00 722.70 777.50 719.90 C 777.00 716.90 776.50 714.00 775.80 711.20 C 775.10 706.70 775.60 701.30 773.80 696.60 C 772.80 693.90 770.30 692.40 768.80 689.70 C 768.60 689.00 768.60 688.20 768.80 687.50 C 769.50 685.50 770.00 683.30 769.80 681.10 C 769.80 680.40 770.00 680.10 770.80 680.10 C 771.00 680.10 771.30 680.10 771.50 680.30 C 772.00 680.50 772.20 681.00 772.00 681.80 C 771.50 683.30 771.30 684.80 771.00 686.30 C 770.30 688.00 771.00 690.00 772.70 691.00 C 773.40 691.20 774.20 691.50 774.70 691.00 L 776.20 690.50 C 776.90 690.30 777.70 690.50 777.90 691.20 C 777.90 691.40 777.90 691.70 777.90 691.70 C 777.70 698.40 776.70 705.80 778.40 712.50 C 780.10 718.40 781.40 724.40 782.10 730.60 C 782.30 732.30 784.10 733.60 785.80 733.30 C 786.30 733.30 786.80 733.10 787.00 732.80 C 789.70 730.80 792.90 728.80 795.90 726.90 C 801.60 723.20 804.30 719.00 808.30 713.50 C 812.30 708.00 815.20 700.60 819.20 694.40 C 819.20 694.40 819.40 694.20 819.70 694.40 L 819.70 694.40 L 820.20 694.60 C 820.40 694.80 820.70 695.10 820.40 695.30 L 820.40 695.30 L 810.70 715.60 C 810.50 715.80 810.20 716.10 810.00 716.30 C 809.80 716.50 809.50 716.80 809.50 717.00 C 808.80 720.80 807.40 724.70 805.60 728.50 Z" fill="#c33935" fill-rule="nonzero" node-id="256" stroke="none" target-height="95" target-width="93.400024" target-x="727.3" target-y="680.1"></path><path d="M 795.70 664.30 C 796.70 670.00 803.10 673.50 809.10 674.70 C 818.50 676.90 823.70 663.50 826.70 657.10 C 828.90 652.10 829.70 652.40 828.20 657.60 C 826.00 666.30 819.30 680.40 808.10 676.90 C 803.90 675.70 799.90 673.70 796.50 671.20 C 793.80 669.20 793.00 666.00 794.00 661.50 C 794.20 660.50 794.50 660.50 794.70 661.50 C 795.20 662.80 795.50 663.50 795.70 664.30 Z" fill="#ea372a" fill-rule="nonzero" node-id="258" stroke="none" target-height="28.300049" target-width="36.700012" target-x="793" target-y="652.1"></path><path d="M 224.70 543.10 L 225.20 537.20 C 225.40 534.50 227.90 532.50 230.70 532.70 C 231.20 532.70 231.90 532.90 232.40 533.20 L 236.60 535.40 C 238.80 536.60 239.80 539.60 238.60 542.10 L 237.40 544.60 C 236.90 545.80 235.90 546.60 234.70 547.10 L 231.20 548.30 C 228.50 549.00 225.70 547.60 225.00 545.10 C 224.70 544.30 224.70 543.80 224.70 543.10 Z" fill="#6c906a" fill-rule="nonzero" node-id="260" stroke="none" target-height="16.5" target-width="15.100006" target-x="224.7" target-y="532.5"></path><path d="M 797.20 444.20 C 797.70 445.20 797.20 446.40 796.00 446.90 L 795.80 447.10 C 790.60 449.30 785.60 449.10 784.60 446.60 L 784.40 446.10 C 783.40 443.60 786.90 440.20 791.80 437.90 L 792.00 437.90 C 793.00 437.40 794.20 437.90 794.70 439.10 L 797.20 444.20 Z" fill="#ffd9bf" fill-rule="nonzero" node-id="262" stroke="none" target-height="11.899994" target-width="14.299988" target-x="783.4" target-y="437.4"></path></svg>